G04 #@! TF.FileFunction,Copper,L1,Top,Signal*
%FSLAX46Y46*%
G04 Gerber Fmt 4.6, Leading zero omitted, Abs format (unit mm)*
G04 Created by KiCad (PCBNEW 4.0.5-e0-6337~49~ubuntu16.04.1) date Sun Apr  9 14:01:27 2017*
%MOMM*%
%LPD*%
G01*
G04 APERTURE LIST*
%ADD10C,0.100000*%
%ADD11R,1.600000X1.600000*%
%ADD12O,1.600000X1.600000*%
%ADD13C,1.143000*%
%ADD14R,5.000000X10.000000*%
%ADD15R,1.800000X1.800000*%
%ADD16C,1.800000*%
%ADD17C,1.400000*%
%ADD18O,1.400000X1.400000*%
%ADD19C,0.600000*%
%ADD20C,0.500000*%
%ADD21C,2.000000*%
%ADD22C,1.000000*%
G04 APERTURE END LIST*
D10*
D11*
X71300000Y-67620000D03*
D12*
X89080000Y-60000000D03*
X73840000Y-67620000D03*
X86540000Y-60000000D03*
X76380000Y-67620000D03*
X84000000Y-60000000D03*
X78920000Y-67620000D03*
X81460000Y-60000000D03*
X81460000Y-67620000D03*
X78920000Y-60000000D03*
X84000000Y-67620000D03*
X76380000Y-60000000D03*
X86540000Y-67620000D03*
X73840000Y-60000000D03*
X89080000Y-67620000D03*
X71300000Y-60000000D03*
D13*
X69000000Y-111000000D03*
X143000000Y-111000000D03*
X60000000Y-55000000D03*
D14*
X54000000Y-55275000D03*
D13*
X140000000Y-55000000D03*
D14*
X146000000Y-55275000D03*
D11*
X71380000Y-86000000D03*
D12*
X89160000Y-78380000D03*
X73920000Y-86000000D03*
X86620000Y-78380000D03*
X76460000Y-86000000D03*
X84080000Y-78380000D03*
X79000000Y-86000000D03*
X81540000Y-78380000D03*
X81540000Y-86000000D03*
X79000000Y-78380000D03*
X84080000Y-86000000D03*
X76460000Y-78380000D03*
X86620000Y-86000000D03*
X73920000Y-78380000D03*
X89160000Y-86000000D03*
X71380000Y-78380000D03*
D11*
X126380000Y-69140000D03*
D12*
X134000000Y-92000000D03*
X126380000Y-71680000D03*
X134000000Y-89460000D03*
X126380000Y-74220000D03*
X134000000Y-86920000D03*
X126380000Y-76760000D03*
X134000000Y-84380000D03*
X126380000Y-79300000D03*
X134000000Y-81840000D03*
X126380000Y-81840000D03*
X134000000Y-79300000D03*
X126380000Y-84380000D03*
X134000000Y-76760000D03*
X126380000Y-86920000D03*
X134000000Y-74220000D03*
X126380000Y-89460000D03*
X134000000Y-71680000D03*
X126380000Y-92000000D03*
X134000000Y-69140000D03*
D15*
X99460000Y-53500000D03*
D16*
X102000000Y-53500000D03*
D15*
X99460000Y-61500000D03*
D16*
X102000000Y-61500000D03*
D15*
X99460000Y-69500000D03*
D16*
X102000000Y-69500000D03*
D15*
X99460000Y-77500000D03*
D16*
X102000000Y-77500000D03*
D15*
X99460000Y-85500000D03*
D16*
X102000000Y-85500000D03*
D15*
X99460000Y-93500000D03*
D16*
X102000000Y-93500000D03*
D15*
X99460000Y-101500000D03*
D16*
X102000000Y-101500000D03*
D15*
X99460000Y-109500000D03*
D16*
X102000000Y-109500000D03*
D13*
X90000000Y-111000000D03*
X85000000Y-111000000D03*
X80000000Y-111000000D03*
X54000000Y-65000000D03*
X54000000Y-69000000D03*
X54000000Y-73000000D03*
X54000000Y-77000000D03*
X54000000Y-85000000D03*
X54000000Y-89000000D03*
X54000000Y-93000000D03*
X54000000Y-97000000D03*
X147000000Y-67000000D03*
X147000000Y-71000000D03*
X147000000Y-75000000D03*
X147000000Y-79000000D03*
X147000000Y-83000000D03*
X147000000Y-87000000D03*
X147000000Y-91000000D03*
X147000000Y-95000000D03*
D17*
X118000000Y-66000000D03*
D18*
X110380000Y-66000000D03*
D17*
X118000000Y-70000000D03*
D18*
X110380000Y-70000000D03*
D17*
X118000000Y-74000000D03*
D18*
X110380000Y-74000000D03*
D17*
X118000000Y-78000000D03*
D18*
X110380000Y-78000000D03*
D17*
X118000000Y-82000000D03*
D18*
X110380000Y-82000000D03*
D17*
X118000000Y-86000000D03*
D18*
X110380000Y-86000000D03*
D17*
X118000000Y-90000000D03*
D18*
X110380000Y-90000000D03*
D17*
X118000000Y-94000000D03*
D18*
X110380000Y-94000000D03*
D17*
X73000000Y-110000000D03*
D18*
X73000000Y-102380000D03*
D19*
X86000000Y-75000000D03*
X87000000Y-81000000D03*
X66250000Y-79500000D03*
X69500000Y-92500000D03*
X79500000Y-93000000D03*
X68000000Y-86000000D03*
X72000000Y-71000000D03*
X91000000Y-62000000D03*
X103000000Y-58000000D03*
X107500000Y-66000000D03*
X107500000Y-53500000D03*
X106500000Y-61500000D03*
X106500000Y-70000000D03*
X105500000Y-69500000D03*
X105500000Y-74000000D03*
X105500000Y-82000000D03*
X105500000Y-85500000D03*
X107000000Y-86000000D03*
X107000000Y-93500000D03*
X108000000Y-90000000D03*
X108000000Y-101500000D03*
X110000000Y-109500000D03*
X63000000Y-65000000D03*
X63000000Y-57500000D03*
X64000000Y-67500000D03*
X64000000Y-56500000D03*
X65000000Y-68000000D03*
X65000000Y-55500000D03*
X66000000Y-68500000D03*
X66000000Y-54500000D03*
X61000000Y-85000000D03*
X61000000Y-75500000D03*
X62000000Y-89000000D03*
X62000000Y-74500000D03*
X63000000Y-93000000D03*
X63000000Y-73500000D03*
X64000000Y-96900000D03*
X64000000Y-72500000D03*
D20*
X86540000Y-60000000D02*
X89080000Y-60000000D01*
X86620000Y-78380000D02*
X89160000Y-78380000D01*
X92000000Y-78000000D02*
X89000000Y-75000000D01*
X89000000Y-75000000D02*
X86000000Y-75000000D01*
X87000000Y-81000000D02*
X89000000Y-81000000D01*
X89000000Y-81000000D02*
X92000000Y-78000000D01*
X66250000Y-79500000D02*
X66549999Y-79799999D01*
X66549999Y-79799999D02*
X72500001Y-79799999D01*
X72500001Y-79799999D02*
X73120001Y-79179999D01*
X73120001Y-79179999D02*
X73920000Y-78380000D01*
X79500000Y-93000000D02*
X79000000Y-92500000D01*
X79000000Y-92500000D02*
X69500000Y-92500000D01*
X69000000Y-111000000D02*
X72000000Y-111000000D01*
X71380000Y-86000000D02*
X68000000Y-86000000D01*
X73920000Y-86000000D02*
X71380000Y-86000000D01*
X73840000Y-67620000D02*
X71300000Y-67620000D01*
X72000000Y-111000000D02*
X73000000Y-110000000D01*
X89080000Y-67620000D02*
X98980000Y-67620000D01*
X98980000Y-67620000D02*
X99460000Y-68100000D01*
X99460000Y-68100000D02*
X99460000Y-69500000D01*
D21*
X54000000Y-55000000D02*
X60000000Y-55000000D01*
D22*
X68000000Y-71000000D02*
X72000000Y-71000000D01*
X68000000Y-60000000D02*
X68000000Y-71000000D01*
X71300000Y-60000000D02*
X68000000Y-60000000D01*
D21*
X90000000Y-63000000D02*
X73168630Y-63000000D01*
X73168630Y-63000000D02*
X71300000Y-61131370D01*
X71300000Y-61131370D02*
X71300000Y-60000000D01*
X91000000Y-62000000D02*
X90000000Y-63000000D01*
X126380000Y-69140000D02*
X126380000Y-66340000D01*
X126380000Y-66340000D02*
X118040000Y-58000000D01*
X118040000Y-58000000D02*
X103000000Y-58000000D01*
X134000000Y-69140000D02*
X134000000Y-61000000D01*
X134000000Y-61000000D02*
X140000000Y-55000000D01*
X126380000Y-69140000D02*
X134000000Y-69140000D01*
X140000000Y-55000000D02*
X146000000Y-55000000D01*
D20*
X122160000Y-70000000D02*
X126380000Y-74220000D01*
X118000000Y-70000000D02*
X122160000Y-70000000D01*
X120760000Y-76760000D02*
X126380000Y-76760000D01*
X118000000Y-74000000D02*
X120760000Y-76760000D01*
X125080000Y-78000000D02*
X126380000Y-79300000D01*
X118000000Y-78000000D02*
X125080000Y-78000000D01*
X126220000Y-82000000D02*
X126380000Y-81840000D01*
X118000000Y-82000000D02*
X126220000Y-82000000D01*
X124760000Y-86000000D02*
X126380000Y-84380000D01*
X118000000Y-86000000D02*
X124760000Y-86000000D01*
X123300000Y-90000000D02*
X126380000Y-86920000D01*
X118000000Y-90000000D02*
X123300000Y-90000000D01*
X118000000Y-94000000D02*
X121840000Y-94000000D01*
X121840000Y-94000000D02*
X126380000Y-89460000D01*
X76380000Y-67620000D02*
X76380000Y-66120000D01*
X99000000Y-56500000D02*
X101000000Y-56500000D01*
X76380000Y-66120000D02*
X78000000Y-64500000D01*
X78000000Y-64500000D02*
X91000000Y-64500000D01*
X91000000Y-64500000D02*
X99000000Y-56500000D01*
X102000000Y-55500000D02*
X102000000Y-53500000D01*
X101000000Y-56500000D02*
X102000000Y-55500000D01*
X102000000Y-53500000D02*
X107500000Y-53500000D01*
X107500000Y-66000000D02*
X110380000Y-66000000D01*
X102000000Y-64500000D02*
X102000000Y-61500000D01*
X101299990Y-65200010D02*
X102000000Y-64500000D01*
X78920000Y-67620000D02*
X81339990Y-65200010D01*
X81339990Y-65200010D02*
X101299990Y-65200010D01*
X102000000Y-61500000D02*
X106500000Y-61500000D01*
X106500000Y-70000000D02*
X110380000Y-70000000D01*
X102000000Y-69500000D02*
X105500000Y-69500000D01*
X81460000Y-67620000D02*
X83080000Y-66000000D01*
X83080000Y-66000000D02*
X101000000Y-66000000D01*
X101000000Y-66000000D02*
X102000000Y-67000000D01*
X102000000Y-67000000D02*
X102000000Y-69500000D01*
X105500000Y-74000000D02*
X110380000Y-74000000D01*
X102000000Y-75000000D02*
X102000000Y-77500000D01*
X100000000Y-73000000D02*
X102000000Y-75000000D01*
X84000000Y-67620000D02*
X89380000Y-73000000D01*
X89380000Y-73000000D02*
X100000000Y-73000000D01*
X102000000Y-77500000D02*
X109880000Y-77500000D01*
X109880000Y-77500000D02*
X110380000Y-78000000D01*
X76460000Y-86000000D02*
X79860020Y-82599980D01*
X79860020Y-82599980D02*
X100599980Y-82599980D01*
X100599980Y-82599980D02*
X102000000Y-84000000D01*
X102000000Y-84000000D02*
X102000000Y-85500000D01*
X102000000Y-85500000D02*
X105500000Y-85500000D01*
X105500000Y-82000000D02*
X110380000Y-82000000D01*
X102000000Y-93500000D02*
X102000000Y-90500000D01*
X102000000Y-90500000D02*
X101000000Y-89500000D01*
X101000000Y-89500000D02*
X98000000Y-89500000D01*
X98000000Y-89500000D02*
X91799990Y-83299990D01*
X91799990Y-83299990D02*
X81700010Y-83299990D01*
X81700010Y-83299990D02*
X79799999Y-85200001D01*
X79799999Y-85200001D02*
X79000000Y-86000000D01*
X102000000Y-93500000D02*
X107000000Y-93500000D01*
X107000000Y-86000000D02*
X110380000Y-86000000D01*
X102000000Y-101500000D02*
X102000000Y-99500000D01*
X102000000Y-99500000D02*
X94000000Y-91500000D01*
X94000000Y-91500000D02*
X94000000Y-87500000D01*
X94000000Y-87500000D02*
X90500000Y-84000000D01*
X90500000Y-84000000D02*
X83540000Y-84000000D01*
X83540000Y-84000000D02*
X81540000Y-86000000D01*
X102000000Y-101500000D02*
X108000000Y-101500000D01*
X108000000Y-90000000D02*
X110380000Y-90000000D01*
X102000000Y-107000000D02*
X102000000Y-109500000D01*
X101000000Y-106000000D02*
X102000000Y-107000000D01*
X98570002Y-106000000D02*
X101000000Y-106000000D01*
X84080000Y-86000000D02*
X84080000Y-91509998D01*
X84080000Y-91509998D02*
X98570002Y-106000000D01*
X102000000Y-109500000D02*
X110000000Y-109500000D01*
X54000000Y-65000000D02*
X63000000Y-65000000D01*
X63000000Y-57500000D02*
X73880000Y-57500000D01*
X73880000Y-57500000D02*
X76380000Y-60000000D01*
X54000000Y-69000000D02*
X62500000Y-69000000D01*
X62500000Y-69000000D02*
X64000000Y-67500000D01*
X64000000Y-56500000D02*
X75420000Y-56500000D01*
X75420000Y-56500000D02*
X78920000Y-60000000D01*
X60000000Y-73000000D02*
X65000000Y-68000000D01*
X54000000Y-73000000D02*
X60000000Y-73000000D01*
X65000000Y-55500000D02*
X76960000Y-55500000D01*
X76960000Y-55500000D02*
X81460000Y-60000000D01*
X54000000Y-77000000D02*
X57500000Y-77000000D01*
X57500000Y-77000000D02*
X66000000Y-68500000D01*
X66000000Y-54500000D02*
X78500000Y-54500000D01*
X78500000Y-54500000D02*
X84000000Y-60000000D01*
X54000000Y-85000000D02*
X61000000Y-85000000D01*
X61000000Y-75500000D02*
X73580000Y-75500000D01*
X73580000Y-75500000D02*
X76460000Y-78380000D01*
X54000000Y-89000000D02*
X62000000Y-89000000D01*
X62000000Y-74500000D02*
X75120000Y-74500000D01*
X75120000Y-74500000D02*
X79000000Y-78380000D01*
X54000000Y-93000000D02*
X63000000Y-93000000D01*
X63000000Y-73500000D02*
X76660000Y-73500000D01*
X76660000Y-73500000D02*
X81540000Y-78380000D01*
X54000000Y-97000000D02*
X63900000Y-97000000D01*
X63900000Y-97000000D02*
X64000000Y-96900000D01*
X64000000Y-72500000D02*
X78200000Y-72500000D01*
X78200000Y-72500000D02*
X84080000Y-78380000D01*
X139780000Y-74220000D02*
X147000000Y-67000000D01*
X134000000Y-74220000D02*
X139780000Y-74220000D01*
X141290000Y-76760000D02*
X147050000Y-71000000D01*
X134000000Y-76760000D02*
X141290000Y-76760000D01*
X142700000Y-79300000D02*
X147000000Y-75000000D01*
X134000000Y-79300000D02*
X142700000Y-79300000D01*
X144160000Y-81840000D02*
X147000000Y-79000000D01*
X134000000Y-81840000D02*
X144160000Y-81840000D01*
X145620000Y-84380000D02*
X147000000Y-83000000D01*
X134000000Y-84380000D02*
X145620000Y-84380000D01*
X146920000Y-86920000D02*
X147000000Y-87000000D01*
X134000000Y-86920000D02*
X146920000Y-86920000D01*
X145460000Y-89460000D02*
X147000000Y-91000000D01*
X134000000Y-89460000D02*
X145460000Y-89460000D01*
X144000000Y-92000000D02*
X147000000Y-95000000D01*
X134000000Y-92000000D02*
X144000000Y-92000000D01*
X118000000Y-66000000D02*
X120700000Y-66000000D01*
X120700000Y-66000000D02*
X126380000Y-71680000D01*
M02*
