M48
INCH,TZ
T1C0.016
T2C0.025
T3C0.028
T4C0.031
T5C0.035
%
G90
G05
T1
X24016Y-29724
X24016Y-33465
X24409Y-29331
X24409Y-35039
X24803Y-22638
X24803Y-25591
X24803Y-28937
X24803Y-36614
X25197Y-22244
X25197Y-26575
X25197Y-28543
X25197Y-38150
X25591Y-21850
X25591Y-26772
X25984Y-21457
X25984Y-26969
X26083Y-31299
X26772Y-33858
X27362Y-36417
X28346Y-27953
X31299Y-36614
X33858Y-29528
X34252Y-31890
X35827Y-24409
X40551Y-22835
X41535Y-27362
X41535Y-29134
X41535Y-32283
X41535Y-33661
X41929Y-24213
X41929Y-27559
X42126Y-33858
X42126Y-36811
X42323Y-21063
X42323Y-25984
X42520Y-35433
X42520Y-39961
X43307Y-43110
T2
X21260Y-25591
X21260Y-27165
X21260Y-28740
X21260Y-30315
X21260Y-33465
X21260Y-35039
X21260Y-36614
X21260Y-38189
X23622Y-21654
X27165Y-43701
X31496Y-43701
X33465Y-43701
X35433Y-43701
X55118Y-21654
X56299Y-43701
X57874Y-26378
X57874Y-29528
X57874Y-31102
X57874Y-32677
X57874Y-34252
X57874Y-35827
X57874Y-37402
X57894Y-27953
T3
X28740Y-40307
X28740Y-43307
X43457Y-25984
X43457Y-27559
X43457Y-29134
X43457Y-30709
X43457Y-32283
X43457Y-33858
X43457Y-35433
X43457Y-37008
X46457Y-25984
X46457Y-27559
X46457Y-29134
X46457Y-30709
X46457Y-32283
X46457Y-33858
X46457Y-35433
X46457Y-37008
T4
X28071Y-23622
X28071Y-26622
X28102Y-30858
X28102Y-33858
X29071Y-23622
X29071Y-26622
X29102Y-30858
X29102Y-33858
X30071Y-23622
X30071Y-26622
X30102Y-30858
X30102Y-33858
X31071Y-23622
X31071Y-26622
X31102Y-30858
X31102Y-33858
X32071Y-23622
X32071Y-26622
X32102Y-30858
X32102Y-33858
X33071Y-23622
X33071Y-26622
X33102Y-30858
X33102Y-33858
X34071Y-23622
X34071Y-26622
X34102Y-30858
X34102Y-33858
X35071Y-23622
X35071Y-26622
X35102Y-30858
X35102Y-33858
X49756Y-27220
X49756Y-28220
X49756Y-29220
X49756Y-30220
X49756Y-31220
X49756Y-32220
X49756Y-33220
X49756Y-34220
X49756Y-35220
X49756Y-36220
X52756Y-27220
X52756Y-28220
X52756Y-29220
X52756Y-30220
X52756Y-31220
X52756Y-32220
X52756Y-33220
X52756Y-34220
X52756Y-35220
X52756Y-36220
T5
X39157Y-21063
X39157Y-24213
X39157Y-27362
X39157Y-30512
X39157Y-33661
X39157Y-36811
X39157Y-39961
X39157Y-43110
X40157Y-21063
X40157Y-24213
X40157Y-27362
X40157Y-30512
X40157Y-33661
X40157Y-36811
X40157Y-39961
X40157Y-43110
T0
M30
