G04 #@! TF.FileFunction,Legend,Top*
%FSLAX46Y46*%
G04 Gerber Fmt 4.6, Leading zero omitted, Abs format (unit mm)*
G04 Created by KiCad (PCBNEW 4.0.5-e0-6337~49~ubuntu16.04.1) date Sun Apr  9 12:27:41 2017*
%MOMM*%
%LPD*%
G01*
G04 APERTURE LIST*
%ADD10C,0.100000*%
%ADD11C,0.200000*%
%ADD12C,0.400000*%
%ADD13C,0.300000*%
%ADD14C,0.120000*%
%ADD15C,0.150000*%
G04 APERTURE END LIST*
D10*
D11*
X109000000Y-60078571D02*
X108666666Y-60078571D01*
X108666666Y-60602381D02*
X108666666Y-59602381D01*
X109142857Y-59602381D01*
X109952381Y-60602381D02*
X109952381Y-60078571D01*
X109904762Y-59983333D01*
X109809524Y-59935714D01*
X109619047Y-59935714D01*
X109523809Y-59983333D01*
X109952381Y-60554762D02*
X109857143Y-60602381D01*
X109619047Y-60602381D01*
X109523809Y-60554762D01*
X109476190Y-60459524D01*
X109476190Y-60364286D01*
X109523809Y-60269048D01*
X109619047Y-60221429D01*
X109857143Y-60221429D01*
X109952381Y-60173810D01*
X110428571Y-60602381D02*
X110428571Y-59602381D01*
X110523809Y-60221429D02*
X110809524Y-60602381D01*
X110809524Y-59935714D02*
X110428571Y-60316667D01*
X111619048Y-60554762D02*
X111523810Y-60602381D01*
X111333333Y-60602381D01*
X111238095Y-60554762D01*
X111190476Y-60459524D01*
X111190476Y-60078571D01*
X111238095Y-59983333D01*
X111333333Y-59935714D01*
X111523810Y-59935714D01*
X111619048Y-59983333D01*
X111666667Y-60078571D01*
X111666667Y-60173810D01*
X111190476Y-60269048D01*
X112857143Y-60602381D02*
X112857143Y-59935714D01*
X112857143Y-60126190D02*
X112904762Y-60030952D01*
X112952381Y-59983333D01*
X113047619Y-59935714D01*
X113142858Y-59935714D01*
X113857144Y-60554762D02*
X113761906Y-60602381D01*
X113571429Y-60602381D01*
X113476191Y-60554762D01*
X113428572Y-60459524D01*
X113428572Y-60078571D01*
X113476191Y-59983333D01*
X113571429Y-59935714D01*
X113761906Y-59935714D01*
X113857144Y-59983333D01*
X113904763Y-60078571D01*
X113904763Y-60173810D01*
X113428572Y-60269048D01*
X114285715Y-60554762D02*
X114380953Y-60602381D01*
X114571429Y-60602381D01*
X114666668Y-60554762D01*
X114714287Y-60459524D01*
X114714287Y-60411905D01*
X114666668Y-60316667D01*
X114571429Y-60269048D01*
X114428572Y-60269048D01*
X114333334Y-60221429D01*
X114285715Y-60126190D01*
X114285715Y-60078571D01*
X114333334Y-59983333D01*
X114428572Y-59935714D01*
X114571429Y-59935714D01*
X114666668Y-59983333D01*
X115142858Y-60602381D02*
X115142858Y-59935714D01*
X115142858Y-59602381D02*
X115095239Y-59650000D01*
X115142858Y-59697619D01*
X115190477Y-59650000D01*
X115142858Y-59602381D01*
X115142858Y-59697619D01*
X115571429Y-60554762D02*
X115666667Y-60602381D01*
X115857143Y-60602381D01*
X115952382Y-60554762D01*
X116000001Y-60459524D01*
X116000001Y-60411905D01*
X115952382Y-60316667D01*
X115857143Y-60269048D01*
X115714286Y-60269048D01*
X115619048Y-60221429D01*
X115571429Y-60126190D01*
X115571429Y-60078571D01*
X115619048Y-59983333D01*
X115714286Y-59935714D01*
X115857143Y-59935714D01*
X115952382Y-59983333D01*
X116285715Y-59935714D02*
X116666667Y-59935714D01*
X116428572Y-59602381D02*
X116428572Y-60459524D01*
X116476191Y-60554762D01*
X116571429Y-60602381D01*
X116666667Y-60602381D01*
X117142858Y-60602381D02*
X117047620Y-60554762D01*
X117000001Y-60507143D01*
X116952382Y-60411905D01*
X116952382Y-60126190D01*
X117000001Y-60030952D01*
X117047620Y-59983333D01*
X117142858Y-59935714D01*
X117285716Y-59935714D01*
X117380954Y-59983333D01*
X117428573Y-60030952D01*
X117476192Y-60126190D01*
X117476192Y-60411905D01*
X117428573Y-60507143D01*
X117380954Y-60554762D01*
X117285716Y-60602381D01*
X117142858Y-60602381D01*
X117904763Y-60602381D02*
X117904763Y-59935714D01*
X117904763Y-60126190D02*
X117952382Y-60030952D01*
X118000001Y-59983333D01*
X118095239Y-59935714D01*
X118190478Y-59935714D01*
X118476192Y-60554762D02*
X118571430Y-60602381D01*
X118761906Y-60602381D01*
X118857145Y-60554762D01*
X118904764Y-60459524D01*
X118904764Y-60411905D01*
X118857145Y-60316667D01*
X118761906Y-60269048D01*
X118619049Y-60269048D01*
X118523811Y-60221429D01*
X118476192Y-60126190D01*
X118476192Y-60078571D01*
X118523811Y-59983333D01*
X118619049Y-59935714D01*
X118761906Y-59935714D01*
X118857145Y-59983333D01*
X119380954Y-60554762D02*
X119380954Y-60602381D01*
X119333335Y-60697619D01*
X119285716Y-60745238D01*
X111500000Y-61635714D02*
X111500000Y-62302381D01*
X111071428Y-61635714D02*
X111071428Y-62159524D01*
X111119047Y-62254762D01*
X111214285Y-62302381D01*
X111357143Y-62302381D01*
X111452381Y-62254762D01*
X111500000Y-62207143D01*
X111928571Y-62254762D02*
X112023809Y-62302381D01*
X112214285Y-62302381D01*
X112309524Y-62254762D01*
X112357143Y-62159524D01*
X112357143Y-62111905D01*
X112309524Y-62016667D01*
X112214285Y-61969048D01*
X112071428Y-61969048D01*
X111976190Y-61921429D01*
X111928571Y-61826190D01*
X111928571Y-61778571D01*
X111976190Y-61683333D01*
X112071428Y-61635714D01*
X112214285Y-61635714D01*
X112309524Y-61683333D01*
X113166667Y-62254762D02*
X113071429Y-62302381D01*
X112880952Y-62302381D01*
X112785714Y-62254762D01*
X112738095Y-62159524D01*
X112738095Y-61778571D01*
X112785714Y-61683333D01*
X112880952Y-61635714D01*
X113071429Y-61635714D01*
X113166667Y-61683333D01*
X113214286Y-61778571D01*
X113214286Y-61873810D01*
X112738095Y-61969048D01*
X114309524Y-61635714D02*
X114500000Y-62302381D01*
X114690477Y-61826190D01*
X114880953Y-62302381D01*
X115071429Y-61635714D01*
X115452381Y-62302381D02*
X115452381Y-61635714D01*
X115452381Y-61302381D02*
X115404762Y-61350000D01*
X115452381Y-61397619D01*
X115500000Y-61350000D01*
X115452381Y-61302381D01*
X115452381Y-61397619D01*
X115928571Y-62302381D02*
X115928571Y-61635714D01*
X115928571Y-61826190D02*
X115976190Y-61730952D01*
X116023809Y-61683333D01*
X116119047Y-61635714D01*
X116214286Y-61635714D01*
X116928572Y-62254762D02*
X116833334Y-62302381D01*
X116642857Y-62302381D01*
X116547619Y-62254762D01*
X116500000Y-62159524D01*
X116500000Y-61778571D01*
X116547619Y-61683333D01*
X116642857Y-61635714D01*
X116833334Y-61635714D01*
X116928572Y-61683333D01*
X116976191Y-61778571D01*
X116976191Y-61873810D01*
X116500000Y-61969048D01*
X120000000Y-63000000D02*
X120000000Y-66000000D01*
X119000000Y-63000000D02*
X120000000Y-63000000D01*
X109000000Y-63000000D02*
X119000000Y-63000000D01*
X109000000Y-66000000D02*
X109000000Y-63000000D01*
D12*
X109928572Y-104178571D02*
X109738096Y-104369048D01*
X109166667Y-104559524D01*
X108785715Y-104559524D01*
X108214287Y-104369048D01*
X107833334Y-103988095D01*
X107642858Y-103607143D01*
X107452382Y-102845238D01*
X107452382Y-102273810D01*
X107642858Y-101511905D01*
X107833334Y-101130952D01*
X108214287Y-100750000D01*
X108785715Y-100559524D01*
X109166667Y-100559524D01*
X109738096Y-100750000D01*
X109928572Y-100940476D01*
X111642858Y-104559524D02*
X111642858Y-100559524D01*
X113166667Y-100559524D01*
X113547620Y-100750000D01*
X113738096Y-100940476D01*
X113928572Y-101321429D01*
X113928572Y-101892857D01*
X113738096Y-102273810D01*
X113547620Y-102464286D01*
X113166667Y-102654762D01*
X111642858Y-102654762D01*
X115642858Y-100559524D02*
X115642858Y-103797619D01*
X115833334Y-104178571D01*
X116023810Y-104369048D01*
X116404763Y-104559524D01*
X117166667Y-104559524D01*
X117547620Y-104369048D01*
X117738096Y-104178571D01*
X117928572Y-103797619D01*
X117928572Y-100559524D01*
X125166667Y-104559524D02*
X123833334Y-102654762D01*
X122880953Y-104559524D02*
X122880953Y-100559524D01*
X124404762Y-100559524D01*
X124785715Y-100750000D01*
X124976191Y-100940476D01*
X125166667Y-101321429D01*
X125166667Y-101892857D01*
X124976191Y-102273810D01*
X124785715Y-102464286D01*
X124404762Y-102654762D01*
X122880953Y-102654762D01*
X128404762Y-104369048D02*
X128023810Y-104559524D01*
X127261905Y-104559524D01*
X126880953Y-104369048D01*
X126690477Y-103988095D01*
X126690477Y-102464286D01*
X126880953Y-102083333D01*
X127261905Y-101892857D01*
X128023810Y-101892857D01*
X128404762Y-102083333D01*
X128595239Y-102464286D01*
X128595239Y-102845238D01*
X126690477Y-103226190D01*
X132023810Y-101892857D02*
X132023810Y-105130952D01*
X131833333Y-105511905D01*
X131642857Y-105702381D01*
X131261905Y-105892857D01*
X130690476Y-105892857D01*
X130309524Y-105702381D01*
X132023810Y-104369048D02*
X131642857Y-104559524D01*
X130880953Y-104559524D01*
X130500000Y-104369048D01*
X130309524Y-104178571D01*
X130119048Y-103797619D01*
X130119048Y-102654762D01*
X130309524Y-102273810D01*
X130500000Y-102083333D01*
X130880953Y-101892857D01*
X131642857Y-101892857D01*
X132023810Y-102083333D01*
X133928572Y-104559524D02*
X133928572Y-101892857D01*
X133928572Y-100559524D02*
X133738096Y-100750000D01*
X133928572Y-100940476D01*
X134119048Y-100750000D01*
X133928572Y-100559524D01*
X133928572Y-100940476D01*
X135642858Y-104369048D02*
X136023810Y-104559524D01*
X136785715Y-104559524D01*
X137166667Y-104369048D01*
X137357143Y-103988095D01*
X137357143Y-103797619D01*
X137166667Y-103416667D01*
X136785715Y-103226190D01*
X136214286Y-103226190D01*
X135833334Y-103035714D01*
X135642858Y-102654762D01*
X135642858Y-102464286D01*
X135833334Y-102083333D01*
X136214286Y-101892857D01*
X136785715Y-101892857D01*
X137166667Y-102083333D01*
X138500000Y-101892857D02*
X140023810Y-101892857D01*
X139071429Y-100559524D02*
X139071429Y-103988095D01*
X139261905Y-104369048D01*
X139642858Y-104559524D01*
X140023810Y-104559524D01*
X142880952Y-104369048D02*
X142500000Y-104559524D01*
X141738095Y-104559524D01*
X141357143Y-104369048D01*
X141166667Y-103988095D01*
X141166667Y-102464286D01*
X141357143Y-102083333D01*
X141738095Y-101892857D01*
X142500000Y-101892857D01*
X142880952Y-102083333D01*
X143071429Y-102464286D01*
X143071429Y-102845238D01*
X141166667Y-103226190D01*
X144785714Y-104559524D02*
X144785714Y-101892857D01*
X144785714Y-102654762D02*
X144976190Y-102273810D01*
X145166666Y-102083333D01*
X145547619Y-101892857D01*
X145928571Y-101892857D01*
D11*
X112380951Y-108852381D02*
X112047617Y-108376190D01*
X111809522Y-108852381D02*
X111809522Y-107852381D01*
X112190475Y-107852381D01*
X112285713Y-107900000D01*
X112333332Y-107947619D01*
X112380951Y-108042857D01*
X112380951Y-108185714D01*
X112333332Y-108280952D01*
X112285713Y-108328571D01*
X112190475Y-108376190D01*
X111809522Y-108376190D01*
X113190475Y-108804762D02*
X113095237Y-108852381D01*
X112904760Y-108852381D01*
X112809522Y-108804762D01*
X112761903Y-108709524D01*
X112761903Y-108328571D01*
X112809522Y-108233333D01*
X112904760Y-108185714D01*
X113095237Y-108185714D01*
X113190475Y-108233333D01*
X113238094Y-108328571D01*
X113238094Y-108423810D01*
X112761903Y-108519048D01*
X114095237Y-108185714D02*
X114095237Y-108995238D01*
X114047618Y-109090476D01*
X113999999Y-109138095D01*
X113904760Y-109185714D01*
X113761903Y-109185714D01*
X113666665Y-109138095D01*
X114095237Y-108804762D02*
X113999999Y-108852381D01*
X113809522Y-108852381D01*
X113714284Y-108804762D01*
X113666665Y-108757143D01*
X113619046Y-108661905D01*
X113619046Y-108376190D01*
X113666665Y-108280952D01*
X113714284Y-108233333D01*
X113809522Y-108185714D01*
X113999999Y-108185714D01*
X114095237Y-108233333D01*
X114571427Y-108852381D02*
X114571427Y-108185714D01*
X114571427Y-107852381D02*
X114523808Y-107900000D01*
X114571427Y-107947619D01*
X114619046Y-107900000D01*
X114571427Y-107852381D01*
X114571427Y-107947619D01*
X114999998Y-108804762D02*
X115095236Y-108852381D01*
X115285712Y-108852381D01*
X115380951Y-108804762D01*
X115428570Y-108709524D01*
X115428570Y-108661905D01*
X115380951Y-108566667D01*
X115285712Y-108519048D01*
X115142855Y-108519048D01*
X115047617Y-108471429D01*
X114999998Y-108376190D01*
X114999998Y-108328571D01*
X115047617Y-108233333D01*
X115142855Y-108185714D01*
X115285712Y-108185714D01*
X115380951Y-108233333D01*
X115714284Y-108185714D02*
X116095236Y-108185714D01*
X115857141Y-107852381D02*
X115857141Y-108709524D01*
X115904760Y-108804762D01*
X115999998Y-108852381D01*
X116095236Y-108852381D01*
X116809523Y-108804762D02*
X116714285Y-108852381D01*
X116523808Y-108852381D01*
X116428570Y-108804762D01*
X116380951Y-108709524D01*
X116380951Y-108328571D01*
X116428570Y-108233333D01*
X116523808Y-108185714D01*
X116714285Y-108185714D01*
X116809523Y-108233333D01*
X116857142Y-108328571D01*
X116857142Y-108423810D01*
X116380951Y-108519048D01*
X117285713Y-108852381D02*
X117285713Y-108185714D01*
X117285713Y-108376190D02*
X117333332Y-108280952D01*
X117380951Y-108233333D01*
X117476189Y-108185714D01*
X117571428Y-108185714D01*
X119095238Y-108852381D02*
X119095238Y-107852381D01*
X119095238Y-108804762D02*
X119000000Y-108852381D01*
X118809523Y-108852381D01*
X118714285Y-108804762D01*
X118666666Y-108757143D01*
X118619047Y-108661905D01*
X118619047Y-108376190D01*
X118666666Y-108280952D01*
X118714285Y-108233333D01*
X118809523Y-108185714D01*
X119000000Y-108185714D01*
X119095238Y-108233333D01*
X119952381Y-108804762D02*
X119857143Y-108852381D01*
X119666666Y-108852381D01*
X119571428Y-108804762D01*
X119523809Y-108709524D01*
X119523809Y-108328571D01*
X119571428Y-108233333D01*
X119666666Y-108185714D01*
X119857143Y-108185714D01*
X119952381Y-108233333D01*
X120000000Y-108328571D01*
X120000000Y-108423810D01*
X119523809Y-108519048D01*
X120380952Y-108804762D02*
X120476190Y-108852381D01*
X120666666Y-108852381D01*
X120761905Y-108804762D01*
X120809524Y-108709524D01*
X120809524Y-108661905D01*
X120761905Y-108566667D01*
X120666666Y-108519048D01*
X120523809Y-108519048D01*
X120428571Y-108471429D01*
X120380952Y-108376190D01*
X120380952Y-108328571D01*
X120428571Y-108233333D01*
X120523809Y-108185714D01*
X120666666Y-108185714D01*
X120761905Y-108233333D01*
X121238095Y-108852381D02*
X121238095Y-108185714D01*
X121238095Y-107852381D02*
X121190476Y-107900000D01*
X121238095Y-107947619D01*
X121285714Y-107900000D01*
X121238095Y-107852381D01*
X121238095Y-107947619D01*
X122142857Y-108185714D02*
X122142857Y-108995238D01*
X122095238Y-109090476D01*
X122047619Y-109138095D01*
X121952380Y-109185714D01*
X121809523Y-109185714D01*
X121714285Y-109138095D01*
X122142857Y-108804762D02*
X122047619Y-108852381D01*
X121857142Y-108852381D01*
X121761904Y-108804762D01*
X121714285Y-108757143D01*
X121666666Y-108661905D01*
X121666666Y-108376190D01*
X121714285Y-108280952D01*
X121761904Y-108233333D01*
X121857142Y-108185714D01*
X122047619Y-108185714D01*
X122142857Y-108233333D01*
X122619047Y-108185714D02*
X122619047Y-108852381D01*
X122619047Y-108280952D02*
X122666666Y-108233333D01*
X122761904Y-108185714D01*
X122904762Y-108185714D01*
X123000000Y-108233333D01*
X123047619Y-108328571D01*
X123047619Y-108852381D01*
X124285714Y-108471429D02*
X125047619Y-108471429D01*
X126619048Y-108328571D02*
X126761905Y-108376190D01*
X126809524Y-108423810D01*
X126857143Y-108519048D01*
X126857143Y-108661905D01*
X126809524Y-108757143D01*
X126761905Y-108804762D01*
X126666667Y-108852381D01*
X126285714Y-108852381D01*
X126285714Y-107852381D01*
X126619048Y-107852381D01*
X126714286Y-107900000D01*
X126761905Y-107947619D01*
X126809524Y-108042857D01*
X126809524Y-108138095D01*
X126761905Y-108233333D01*
X126714286Y-108280952D01*
X126619048Y-108328571D01*
X126285714Y-108328571D01*
X127666667Y-108804762D02*
X127571429Y-108852381D01*
X127380952Y-108852381D01*
X127285714Y-108804762D01*
X127238095Y-108709524D01*
X127238095Y-108328571D01*
X127285714Y-108233333D01*
X127380952Y-108185714D01*
X127571429Y-108185714D01*
X127666667Y-108233333D01*
X127714286Y-108328571D01*
X127714286Y-108423810D01*
X127238095Y-108519048D01*
X128142857Y-108185714D02*
X128142857Y-108852381D01*
X128142857Y-108280952D02*
X128190476Y-108233333D01*
X128285714Y-108185714D01*
X128428572Y-108185714D01*
X128523810Y-108233333D01*
X128571429Y-108328571D01*
X128571429Y-108852381D01*
X129809524Y-108328571D02*
X130142858Y-108328571D01*
X130285715Y-108852381D02*
X129809524Y-108852381D01*
X129809524Y-107852381D01*
X130285715Y-107852381D01*
X131142858Y-108852381D02*
X131142858Y-108328571D01*
X131095239Y-108233333D01*
X131000001Y-108185714D01*
X130809524Y-108185714D01*
X130714286Y-108233333D01*
X131142858Y-108804762D02*
X131047620Y-108852381D01*
X130809524Y-108852381D01*
X130714286Y-108804762D01*
X130666667Y-108709524D01*
X130666667Y-108614286D01*
X130714286Y-108519048D01*
X130809524Y-108471429D01*
X131047620Y-108471429D01*
X131142858Y-108423810D01*
X131476191Y-108185714D02*
X131857143Y-108185714D01*
X131619048Y-107852381D02*
X131619048Y-108709524D01*
X131666667Y-108804762D01*
X131761905Y-108852381D01*
X131857143Y-108852381D01*
X132571430Y-108804762D02*
X132476192Y-108852381D01*
X132285715Y-108852381D01*
X132190477Y-108804762D01*
X132142858Y-108709524D01*
X132142858Y-108328571D01*
X132190477Y-108233333D01*
X132285715Y-108185714D01*
X132476192Y-108185714D01*
X132571430Y-108233333D01*
X132619049Y-108328571D01*
X132619049Y-108423810D01*
X132142858Y-108519048D01*
X133047620Y-108852381D02*
X133047620Y-108185714D01*
X133047620Y-108376190D02*
X133095239Y-108280952D01*
X133142858Y-108233333D01*
X133238096Y-108185714D01*
X133333335Y-108185714D01*
X111642855Y-110552381D02*
X111642855Y-109552381D01*
X112214284Y-110552381D02*
X111785712Y-109980952D01*
X112214284Y-109552381D02*
X111642855Y-110123810D01*
X112642855Y-110552381D02*
X112642855Y-109885714D01*
X112642855Y-109552381D02*
X112595236Y-109600000D01*
X112642855Y-109647619D01*
X112690474Y-109600000D01*
X112642855Y-109552381D01*
X112642855Y-109647619D01*
X113690474Y-110457143D02*
X113642855Y-110504762D01*
X113499998Y-110552381D01*
X113404760Y-110552381D01*
X113261902Y-110504762D01*
X113166664Y-110409524D01*
X113119045Y-110314286D01*
X113071426Y-110123810D01*
X113071426Y-109980952D01*
X113119045Y-109790476D01*
X113166664Y-109695238D01*
X113261902Y-109600000D01*
X113404760Y-109552381D01*
X113499998Y-109552381D01*
X113642855Y-109600000D01*
X113690474Y-109647619D01*
X114071426Y-110266667D02*
X114547617Y-110266667D01*
X113976188Y-110552381D02*
X114309521Y-109552381D01*
X114642855Y-110552381D01*
X114976188Y-110552381D02*
X114976188Y-109552381D01*
X115214283Y-109552381D01*
X115357141Y-109600000D01*
X115452379Y-109695238D01*
X115499998Y-109790476D01*
X115547617Y-109980952D01*
X115547617Y-110123810D01*
X115499998Y-110314286D01*
X115452379Y-110409524D01*
X115357141Y-110504762D01*
X115214283Y-110552381D01*
X114976188Y-110552381D01*
X116880950Y-110552381D02*
X116785712Y-110504762D01*
X116738093Y-110409524D01*
X116738093Y-109552381D01*
X117690475Y-110552381D02*
X117690475Y-110028571D01*
X117642856Y-109933333D01*
X117547618Y-109885714D01*
X117357141Y-109885714D01*
X117261903Y-109933333D01*
X117690475Y-110504762D02*
X117595237Y-110552381D01*
X117357141Y-110552381D01*
X117261903Y-110504762D01*
X117214284Y-110409524D01*
X117214284Y-110314286D01*
X117261903Y-110219048D01*
X117357141Y-110171429D01*
X117595237Y-110171429D01*
X117690475Y-110123810D01*
X118071427Y-109885714D02*
X118309522Y-110552381D01*
X118547618Y-109885714D02*
X118309522Y-110552381D01*
X118214284Y-110790476D01*
X118166665Y-110838095D01*
X118071427Y-110885714D01*
X119071427Y-110552381D02*
X118976189Y-110504762D01*
X118928570Y-110457143D01*
X118880951Y-110361905D01*
X118880951Y-110076190D01*
X118928570Y-109980952D01*
X118976189Y-109933333D01*
X119071427Y-109885714D01*
X119214285Y-109885714D01*
X119309523Y-109933333D01*
X119357142Y-109980952D01*
X119404761Y-110076190D01*
X119404761Y-110361905D01*
X119357142Y-110457143D01*
X119309523Y-110504762D01*
X119214285Y-110552381D01*
X119071427Y-110552381D01*
X120261904Y-109885714D02*
X120261904Y-110552381D01*
X119833332Y-109885714D02*
X119833332Y-110409524D01*
X119880951Y-110504762D01*
X119976189Y-110552381D01*
X120119047Y-110552381D01*
X120214285Y-110504762D01*
X120261904Y-110457143D01*
X120595237Y-109885714D02*
X120976189Y-109885714D01*
X120738094Y-109552381D02*
X120738094Y-110409524D01*
X120785713Y-110504762D01*
X120880951Y-110552381D01*
X120976189Y-110552381D01*
X122071428Y-110171429D02*
X122833333Y-110171429D01*
X124547619Y-110552381D02*
X124071428Y-110552381D01*
X124071428Y-109552381D01*
X125261905Y-110504762D02*
X125166667Y-110552381D01*
X124976190Y-110552381D01*
X124880952Y-110504762D01*
X124833333Y-110409524D01*
X124833333Y-110028571D01*
X124880952Y-109933333D01*
X124976190Y-109885714D01*
X125166667Y-109885714D01*
X125261905Y-109933333D01*
X125309524Y-110028571D01*
X125309524Y-110123810D01*
X124833333Y-110219048D01*
X125880952Y-110552381D02*
X125785714Y-110504762D01*
X125738095Y-110409524D01*
X125738095Y-109552381D01*
X126690477Y-110552381D02*
X126690477Y-110028571D01*
X126642858Y-109933333D01*
X126547620Y-109885714D01*
X126357143Y-109885714D01*
X126261905Y-109933333D01*
X126690477Y-110504762D02*
X126595239Y-110552381D01*
X126357143Y-110552381D01*
X126261905Y-110504762D01*
X126214286Y-110409524D01*
X126214286Y-110314286D01*
X126261905Y-110219048D01*
X126357143Y-110171429D01*
X126595239Y-110171429D01*
X126690477Y-110123810D01*
X127166667Y-109885714D02*
X127166667Y-110552381D01*
X127166667Y-109980952D02*
X127214286Y-109933333D01*
X127309524Y-109885714D01*
X127452382Y-109885714D01*
X127547620Y-109933333D01*
X127595239Y-110028571D01*
X127595239Y-110552381D01*
X128500001Y-110552381D02*
X128500001Y-109552381D01*
X128500001Y-110504762D02*
X128404763Y-110552381D01*
X128214286Y-110552381D01*
X128119048Y-110504762D01*
X128071429Y-110457143D01*
X128023810Y-110361905D01*
X128023810Y-110076190D01*
X128071429Y-109980952D01*
X128119048Y-109933333D01*
X128214286Y-109885714D01*
X128404763Y-109885714D01*
X128500001Y-109933333D01*
X130071430Y-110028571D02*
X130214287Y-110076190D01*
X130261906Y-110123810D01*
X130309525Y-110219048D01*
X130309525Y-110361905D01*
X130261906Y-110457143D01*
X130214287Y-110504762D01*
X130119049Y-110552381D01*
X129738096Y-110552381D01*
X129738096Y-109552381D01*
X130071430Y-109552381D01*
X130166668Y-109600000D01*
X130214287Y-109647619D01*
X130261906Y-109742857D01*
X130261906Y-109838095D01*
X130214287Y-109933333D01*
X130166668Y-109980952D01*
X130071430Y-110028571D01*
X129738096Y-110028571D01*
X131166668Y-110552381D02*
X131166668Y-110028571D01*
X131119049Y-109933333D01*
X131023811Y-109885714D01*
X130833334Y-109885714D01*
X130738096Y-109933333D01*
X131166668Y-110504762D02*
X131071430Y-110552381D01*
X130833334Y-110552381D01*
X130738096Y-110504762D01*
X130690477Y-110409524D01*
X130690477Y-110314286D01*
X130738096Y-110219048D01*
X130833334Y-110171429D01*
X131071430Y-110171429D01*
X131166668Y-110123810D01*
X131500001Y-109885714D02*
X131880953Y-109885714D01*
X131642858Y-109552381D02*
X131642858Y-110409524D01*
X131690477Y-110504762D01*
X131785715Y-110552381D01*
X131880953Y-110552381D01*
X132595240Y-110504762D02*
X132500002Y-110552381D01*
X132309525Y-110552381D01*
X132214287Y-110504762D01*
X132166668Y-110409524D01*
X132166668Y-110028571D01*
X132214287Y-109933333D01*
X132309525Y-109885714D01*
X132500002Y-109885714D01*
X132595240Y-109933333D01*
X132642859Y-110028571D01*
X132642859Y-110123810D01*
X132166668Y-110219048D01*
X132976192Y-109885714D02*
X133214287Y-110552381D01*
X133452383Y-109885714D02*
X133214287Y-110552381D01*
X133119049Y-110790476D01*
X133071430Y-110838095D01*
X132976192Y-110885714D01*
D13*
X138904762Y-84047619D02*
X138904762Y-83666667D01*
X139000000Y-83476191D01*
X139190476Y-83285714D01*
X139571429Y-83190476D01*
X140238095Y-83190476D01*
X140619048Y-83285714D01*
X140809524Y-83476191D01*
X140904762Y-83666667D01*
X140904762Y-84047619D01*
X140809524Y-84238095D01*
X140619048Y-84428572D01*
X140238095Y-84523810D01*
X139571429Y-84523810D01*
X139190476Y-84428572D01*
X139000000Y-84238095D01*
X138904762Y-84047619D01*
X139571429Y-81476191D02*
X140904762Y-81476191D01*
X139571429Y-82333334D02*
X140619048Y-82333334D01*
X140809524Y-82238095D01*
X140904762Y-82047619D01*
X140904762Y-81761905D01*
X140809524Y-81571429D01*
X140714286Y-81476191D01*
X139571429Y-80809524D02*
X139571429Y-80047619D01*
X138904762Y-80523810D02*
X140619048Y-80523810D01*
X140809524Y-80428571D01*
X140904762Y-80238095D01*
X140904762Y-80047619D01*
X139571429Y-79380953D02*
X141571429Y-79380953D01*
X139666667Y-79380953D02*
X139571429Y-79190476D01*
X139571429Y-78809524D01*
X139666667Y-78619048D01*
X139761905Y-78523810D01*
X139952381Y-78428572D01*
X140523810Y-78428572D01*
X140714286Y-78523810D01*
X140809524Y-78619048D01*
X140904762Y-78809524D01*
X140904762Y-79190476D01*
X140809524Y-79380953D01*
X139571429Y-76714286D02*
X140904762Y-76714286D01*
X139571429Y-77571429D02*
X140619048Y-77571429D01*
X140809524Y-77476190D01*
X140904762Y-77285714D01*
X140904762Y-77000000D01*
X140809524Y-76809524D01*
X140714286Y-76714286D01*
X139571429Y-76047619D02*
X139571429Y-75285714D01*
X138904762Y-75761905D02*
X140619048Y-75761905D01*
X140809524Y-75666666D01*
X140904762Y-75476190D01*
X140904762Y-75285714D01*
D11*
X144000000Y-80000000D02*
X142000000Y-80000000D01*
X144000000Y-98000000D02*
X147000000Y-98000000D01*
X144000000Y-63000000D02*
X144000000Y-98000000D01*
X147000000Y-63000000D02*
X144000000Y-63000000D01*
D13*
X62904762Y-83285715D02*
X60904762Y-83285715D01*
X61571429Y-82333334D02*
X62904762Y-82333334D01*
X61761905Y-82333334D02*
X61666667Y-82238095D01*
X61571429Y-82047619D01*
X61571429Y-81761905D01*
X61666667Y-81571429D01*
X61857143Y-81476191D01*
X62904762Y-81476191D01*
X61571429Y-80523810D02*
X63571429Y-80523810D01*
X61666667Y-80523810D02*
X61571429Y-80333333D01*
X61571429Y-79952381D01*
X61666667Y-79761905D01*
X61761905Y-79666667D01*
X61952381Y-79571429D01*
X62523810Y-79571429D01*
X62714286Y-79666667D01*
X62809524Y-79761905D01*
X62904762Y-79952381D01*
X62904762Y-80333333D01*
X62809524Y-80523810D01*
X61571429Y-77857143D02*
X62904762Y-77857143D01*
X61571429Y-78714286D02*
X62619048Y-78714286D01*
X62809524Y-78619047D01*
X62904762Y-78428571D01*
X62904762Y-78142857D01*
X62809524Y-77952381D01*
X62714286Y-77857143D01*
X61571429Y-77190476D02*
X61571429Y-76428571D01*
X60904762Y-76904762D02*
X62619048Y-76904762D01*
X62809524Y-76809523D01*
X62904762Y-76619047D01*
X62904762Y-76428571D01*
D11*
X58000000Y-80000000D02*
X60000000Y-80000000D01*
X58000000Y-100000000D02*
X55000000Y-100000000D01*
X58000000Y-62000000D02*
X58000000Y-100000000D01*
X55000000Y-62000000D02*
X58000000Y-62000000D01*
X66752381Y-101047621D02*
X66752381Y-100857144D01*
X66800000Y-100761906D01*
X66895238Y-100666668D01*
X67085714Y-100619049D01*
X67419048Y-100619049D01*
X67609524Y-100666668D01*
X67704762Y-100761906D01*
X67752381Y-100857144D01*
X67752381Y-101047621D01*
X67704762Y-101142859D01*
X67609524Y-101238097D01*
X67419048Y-101285716D01*
X67085714Y-101285716D01*
X66895238Y-101238097D01*
X66800000Y-101142859D01*
X66752381Y-101047621D01*
X67085714Y-99761906D02*
X67752381Y-99761906D01*
X67085714Y-100190478D02*
X67609524Y-100190478D01*
X67704762Y-100142859D01*
X67752381Y-100047621D01*
X67752381Y-99904763D01*
X67704762Y-99809525D01*
X67657143Y-99761906D01*
X67085714Y-99428573D02*
X67085714Y-99047621D01*
X66752381Y-99285716D02*
X67609524Y-99285716D01*
X67704762Y-99238097D01*
X67752381Y-99142859D01*
X67752381Y-99047621D01*
X67085714Y-98714287D02*
X68085714Y-98714287D01*
X67133333Y-98714287D02*
X67085714Y-98619049D01*
X67085714Y-98428572D01*
X67133333Y-98333334D01*
X67180952Y-98285715D01*
X67276190Y-98238096D01*
X67561905Y-98238096D01*
X67657143Y-98285715D01*
X67704762Y-98333334D01*
X67752381Y-98428572D01*
X67752381Y-98619049D01*
X67704762Y-98714287D01*
X67085714Y-97380953D02*
X67752381Y-97380953D01*
X67085714Y-97809525D02*
X67609524Y-97809525D01*
X67704762Y-97761906D01*
X67752381Y-97666668D01*
X67752381Y-97523810D01*
X67704762Y-97428572D01*
X67657143Y-97380953D01*
X67085714Y-97047620D02*
X67085714Y-96666668D01*
X66752381Y-96904763D02*
X67609524Y-96904763D01*
X67704762Y-96857144D01*
X67752381Y-96761906D01*
X67752381Y-96666668D01*
X67704762Y-95142857D02*
X67752381Y-95238095D01*
X67752381Y-95428572D01*
X67704762Y-95523810D01*
X67657143Y-95571429D01*
X67561905Y-95619048D01*
X67276190Y-95619048D01*
X67180952Y-95571429D01*
X67133333Y-95523810D01*
X67085714Y-95428572D01*
X67085714Y-95238095D01*
X67133333Y-95142857D01*
X67752381Y-94571429D02*
X67704762Y-94666667D01*
X67657143Y-94714286D01*
X67561905Y-94761905D01*
X67276190Y-94761905D01*
X67180952Y-94714286D01*
X67133333Y-94666667D01*
X67085714Y-94571429D01*
X67085714Y-94428571D01*
X67133333Y-94333333D01*
X67180952Y-94285714D01*
X67276190Y-94238095D01*
X67561905Y-94238095D01*
X67657143Y-94285714D01*
X67704762Y-94333333D01*
X67752381Y-94428571D01*
X67752381Y-94571429D01*
X67085714Y-93809524D02*
X67752381Y-93809524D01*
X67180952Y-93809524D02*
X67133333Y-93761905D01*
X67085714Y-93666667D01*
X67085714Y-93523809D01*
X67133333Y-93428571D01*
X67228571Y-93380952D01*
X67752381Y-93380952D01*
X67085714Y-93047619D02*
X67085714Y-92666667D01*
X66752381Y-92904762D02*
X67609524Y-92904762D01*
X67704762Y-92857143D01*
X67752381Y-92761905D01*
X67752381Y-92666667D01*
X67752381Y-92333333D02*
X67085714Y-92333333D01*
X67276190Y-92333333D02*
X67180952Y-92285714D01*
X67133333Y-92238095D01*
X67085714Y-92142857D01*
X67085714Y-92047618D01*
X67752381Y-91571428D02*
X67704762Y-91666666D01*
X67657143Y-91714285D01*
X67561905Y-91761904D01*
X67276190Y-91761904D01*
X67180952Y-91714285D01*
X67133333Y-91666666D01*
X67085714Y-91571428D01*
X67085714Y-91428570D01*
X67133333Y-91333332D01*
X67180952Y-91285713D01*
X67276190Y-91238094D01*
X67561905Y-91238094D01*
X67657143Y-91285713D01*
X67704762Y-91333332D01*
X67752381Y-91428570D01*
X67752381Y-91571428D01*
X67752381Y-90666666D02*
X67704762Y-90761904D01*
X67609524Y-90809523D01*
X66752381Y-90809523D01*
X69833333Y-102833334D02*
X69785714Y-102880954D01*
X69642857Y-102976192D01*
X69547619Y-103023811D01*
X69404762Y-103071430D01*
X69166667Y-103119049D01*
X68976190Y-103119049D01*
X68738095Y-103071430D01*
X68595238Y-103023811D01*
X68500000Y-102976192D01*
X68357143Y-102880954D01*
X68309524Y-102833334D01*
X68785714Y-102023810D02*
X69452381Y-102023810D01*
X68785714Y-102452382D02*
X69309524Y-102452382D01*
X69404762Y-102404763D01*
X69452381Y-102309525D01*
X69452381Y-102166667D01*
X69404762Y-102071429D01*
X69357143Y-102023810D01*
X69404762Y-101595239D02*
X69452381Y-101500001D01*
X69452381Y-101309525D01*
X69404762Y-101214286D01*
X69309524Y-101166667D01*
X69261905Y-101166667D01*
X69166667Y-101214286D01*
X69119048Y-101309525D01*
X69119048Y-101452382D01*
X69071429Y-101547620D01*
X68976190Y-101595239D01*
X68928571Y-101595239D01*
X68833333Y-101547620D01*
X68785714Y-101452382D01*
X68785714Y-101309525D01*
X68833333Y-101214286D01*
X68785714Y-100309524D02*
X69452381Y-100309524D01*
X68785714Y-100738096D02*
X69309524Y-100738096D01*
X69404762Y-100690477D01*
X69452381Y-100595239D01*
X69452381Y-100452381D01*
X69404762Y-100357143D01*
X69357143Y-100309524D01*
X69452381Y-99404762D02*
X68928571Y-99404762D01*
X68833333Y-99452381D01*
X68785714Y-99547619D01*
X68785714Y-99738096D01*
X68833333Y-99833334D01*
X69404762Y-99404762D02*
X69452381Y-99500000D01*
X69452381Y-99738096D01*
X69404762Y-99833334D01*
X69309524Y-99880953D01*
X69214286Y-99880953D01*
X69119048Y-99833334D01*
X69071429Y-99738096D01*
X69071429Y-99500000D01*
X69023810Y-99404762D01*
X69452381Y-98785715D02*
X69404762Y-98880953D01*
X69309524Y-98928572D01*
X68452381Y-98928572D01*
X69452381Y-98261905D02*
X69404762Y-98357143D01*
X69309524Y-98404762D01*
X68452381Y-98404762D01*
X68785714Y-97976190D02*
X69452381Y-97738095D01*
X68785714Y-97499999D02*
X69452381Y-97738095D01*
X69690476Y-97833333D01*
X69738095Y-97880952D01*
X69785714Y-97976190D01*
X68785714Y-96499999D02*
X68785714Y-96119047D01*
X68452381Y-96357142D02*
X69309524Y-96357142D01*
X69404762Y-96309523D01*
X69452381Y-96214285D01*
X69452381Y-96119047D01*
X69452381Y-95785713D02*
X68785714Y-95785713D01*
X68452381Y-95785713D02*
X68500000Y-95833332D01*
X68547619Y-95785713D01*
X68500000Y-95738094D01*
X68452381Y-95785713D01*
X68547619Y-95785713D01*
X69404762Y-94928570D02*
X69452381Y-95023808D01*
X69452381Y-95214285D01*
X69404762Y-95309523D01*
X69309524Y-95357142D01*
X68928571Y-95357142D01*
X68833333Y-95309523D01*
X68785714Y-95214285D01*
X68785714Y-95023808D01*
X68833333Y-94928570D01*
X68928571Y-94880951D01*
X69023810Y-94880951D01*
X69119048Y-95357142D01*
X68785714Y-93833332D02*
X68785714Y-93452380D01*
X68452381Y-93690475D02*
X69309524Y-93690475D01*
X69404762Y-93642856D01*
X69452381Y-93547618D01*
X69452381Y-93452380D01*
X69452381Y-92976189D02*
X69404762Y-93071427D01*
X69357143Y-93119046D01*
X69261905Y-93166665D01*
X68976190Y-93166665D01*
X68880952Y-93119046D01*
X68833333Y-93071427D01*
X68785714Y-92976189D01*
X68785714Y-92833331D01*
X68833333Y-92738093D01*
X68880952Y-92690474D01*
X68976190Y-92642855D01*
X69261905Y-92642855D01*
X69357143Y-92690474D01*
X69404762Y-92738093D01*
X69452381Y-92833331D01*
X69452381Y-92976189D01*
X68500000Y-90928569D02*
X68452381Y-91023807D01*
X68452381Y-91166664D01*
X68500000Y-91309522D01*
X68595238Y-91404760D01*
X68690476Y-91452379D01*
X68880952Y-91499998D01*
X69023810Y-91499998D01*
X69214286Y-91452379D01*
X69309524Y-91404760D01*
X69404762Y-91309522D01*
X69452381Y-91166664D01*
X69452381Y-91071426D01*
X69404762Y-90928569D01*
X69357143Y-90880950D01*
X69023810Y-90880950D01*
X69023810Y-91071426D01*
X69452381Y-90452379D02*
X68452381Y-90452379D01*
X69452381Y-89880950D01*
X68452381Y-89880950D01*
X69452381Y-89404760D02*
X68452381Y-89404760D01*
X68452381Y-89166665D01*
X68500000Y-89023807D01*
X68595238Y-88928569D01*
X68690476Y-88880950D01*
X68880952Y-88833331D01*
X69023810Y-88833331D01*
X69214286Y-88880950D01*
X69309524Y-88928569D01*
X69404762Y-89023807D01*
X69452381Y-89166665D01*
X69452381Y-89404760D01*
X70485714Y-102428573D02*
X71152381Y-102190478D01*
X70485714Y-101952382D01*
X71152381Y-101571430D02*
X70485714Y-101571430D01*
X70152381Y-101571430D02*
X70200000Y-101619049D01*
X70247619Y-101571430D01*
X70200000Y-101523811D01*
X70152381Y-101571430D01*
X70247619Y-101571430D01*
X71152381Y-100666668D02*
X70628571Y-100666668D01*
X70533333Y-100714287D01*
X70485714Y-100809525D01*
X70485714Y-101000002D01*
X70533333Y-101095240D01*
X71104762Y-100666668D02*
X71152381Y-100761906D01*
X71152381Y-101000002D01*
X71104762Y-101095240D01*
X71009524Y-101142859D01*
X70914286Y-101142859D01*
X70819048Y-101095240D01*
X70771429Y-101000002D01*
X70771429Y-100761906D01*
X70723810Y-100666668D01*
X70485714Y-99571430D02*
X70485714Y-99190478D01*
X71152381Y-99428573D02*
X70295238Y-99428573D01*
X70200000Y-99380954D01*
X70152381Y-99285716D01*
X70152381Y-99190478D01*
X71152381Y-98428572D02*
X70628571Y-98428572D01*
X70533333Y-98476191D01*
X70485714Y-98571429D01*
X70485714Y-98761906D01*
X70533333Y-98857144D01*
X71104762Y-98428572D02*
X71152381Y-98523810D01*
X71152381Y-98761906D01*
X71104762Y-98857144D01*
X71009524Y-98904763D01*
X70914286Y-98904763D01*
X70819048Y-98857144D01*
X70771429Y-98761906D01*
X70771429Y-98523810D01*
X70723810Y-98428572D01*
X71152381Y-97952382D02*
X70152381Y-97952382D01*
X70771429Y-97857144D02*
X71152381Y-97571429D01*
X70485714Y-97571429D02*
X70866667Y-97952382D01*
X71104762Y-96761905D02*
X71152381Y-96857143D01*
X71152381Y-97047620D01*
X71104762Y-97142858D01*
X71009524Y-97190477D01*
X70628571Y-97190477D01*
X70533333Y-97142858D01*
X70485714Y-97047620D01*
X70485714Y-96857143D01*
X70533333Y-96761905D01*
X70628571Y-96714286D01*
X70723810Y-96714286D01*
X70819048Y-97190477D01*
X71152381Y-95523810D02*
X70485714Y-95523810D01*
X70676190Y-95523810D02*
X70580952Y-95476191D01*
X70533333Y-95428572D01*
X70485714Y-95333334D01*
X70485714Y-95238095D01*
X71104762Y-94523809D02*
X71152381Y-94619047D01*
X71152381Y-94809524D01*
X71104762Y-94904762D01*
X71009524Y-94952381D01*
X70628571Y-94952381D01*
X70533333Y-94904762D01*
X70485714Y-94809524D01*
X70485714Y-94619047D01*
X70533333Y-94523809D01*
X70628571Y-94476190D01*
X70723810Y-94476190D01*
X70819048Y-94952381D01*
X71104762Y-94095238D02*
X71152381Y-94000000D01*
X71152381Y-93809524D01*
X71104762Y-93714285D01*
X71009524Y-93666666D01*
X70961905Y-93666666D01*
X70866667Y-93714285D01*
X70819048Y-93809524D01*
X70819048Y-93952381D01*
X70771429Y-94047619D01*
X70676190Y-94095238D01*
X70628571Y-94095238D01*
X70533333Y-94047619D01*
X70485714Y-93952381D01*
X70485714Y-93809524D01*
X70533333Y-93714285D01*
X71152381Y-93238095D02*
X70485714Y-93238095D01*
X70152381Y-93238095D02*
X70200000Y-93285714D01*
X70247619Y-93238095D01*
X70200000Y-93190476D01*
X70152381Y-93238095D01*
X70247619Y-93238095D01*
X71104762Y-92809524D02*
X71152381Y-92714286D01*
X71152381Y-92523810D01*
X71104762Y-92428571D01*
X71009524Y-92380952D01*
X70961905Y-92380952D01*
X70866667Y-92428571D01*
X70819048Y-92523810D01*
X70819048Y-92666667D01*
X70771429Y-92761905D01*
X70676190Y-92809524D01*
X70628571Y-92809524D01*
X70533333Y-92761905D01*
X70485714Y-92666667D01*
X70485714Y-92523810D01*
X70533333Y-92428571D01*
X70485714Y-92095238D02*
X70485714Y-91714286D01*
X70152381Y-91952381D02*
X71009524Y-91952381D01*
X71104762Y-91904762D01*
X71152381Y-91809524D01*
X71152381Y-91714286D01*
X71152381Y-91238095D02*
X71104762Y-91333333D01*
X71057143Y-91380952D01*
X70961905Y-91428571D01*
X70676190Y-91428571D01*
X70580952Y-91380952D01*
X70533333Y-91333333D01*
X70485714Y-91238095D01*
X70485714Y-91095237D01*
X70533333Y-90999999D01*
X70580952Y-90952380D01*
X70676190Y-90904761D01*
X70961905Y-90904761D01*
X71057143Y-90952380D01*
X71104762Y-90999999D01*
X71152381Y-91095237D01*
X71152381Y-91238095D01*
X71152381Y-90476190D02*
X70485714Y-90476190D01*
X70676190Y-90476190D02*
X70580952Y-90428571D01*
X70533333Y-90380952D01*
X70485714Y-90285714D01*
X70485714Y-90190475D01*
X71533333Y-89952380D02*
X71485714Y-89904761D01*
X71342857Y-89809523D01*
X71247619Y-89761904D01*
X71104762Y-89714285D01*
X70866667Y-89666666D01*
X70676190Y-89666666D01*
X70438095Y-89714285D01*
X70295238Y-89761904D01*
X70200000Y-89809523D01*
X70057143Y-89904761D01*
X70009524Y-89952380D01*
X69000000Y-108000000D02*
X70000000Y-107000000D01*
X70000000Y-107000000D02*
X68000000Y-107000000D01*
X69000000Y-104000000D02*
X69000000Y-108000000D01*
X68000000Y-107000000D02*
X69000000Y-108000000D01*
D13*
X65857143Y-54250000D02*
X65714286Y-54178571D01*
X65500000Y-54178571D01*
X65285715Y-54250000D01*
X65142857Y-54392857D01*
X65071429Y-54535714D01*
X65000000Y-54821429D01*
X65000000Y-55035714D01*
X65071429Y-55321429D01*
X65142857Y-55464286D01*
X65285715Y-55607143D01*
X65500000Y-55678571D01*
X65642857Y-55678571D01*
X65857143Y-55607143D01*
X65928572Y-55535714D01*
X65928572Y-55035714D01*
X65642857Y-55035714D01*
X66571429Y-55678571D02*
X66571429Y-54178571D01*
X67428572Y-55678571D01*
X67428572Y-54178571D01*
X68142858Y-55678571D02*
X68142858Y-54178571D01*
X68500001Y-54178571D01*
X68714286Y-54250000D01*
X68857144Y-54392857D01*
X68928572Y-54535714D01*
X69000001Y-54821429D01*
X69000001Y-55035714D01*
X68928572Y-55321429D01*
X68857144Y-55464286D01*
X68714286Y-55607143D01*
X68500001Y-55678571D01*
X68142858Y-55678571D01*
X130000000Y-52903571D02*
X130500000Y-54403571D01*
X131000000Y-52903571D01*
X132357143Y-54260714D02*
X132285714Y-54332143D01*
X132071428Y-54403571D01*
X131928571Y-54403571D01*
X131714286Y-54332143D01*
X131571428Y-54189286D01*
X131500000Y-54046429D01*
X131428571Y-53760714D01*
X131428571Y-53546429D01*
X131500000Y-53260714D01*
X131571428Y-53117857D01*
X131714286Y-52975000D01*
X131928571Y-52903571D01*
X132071428Y-52903571D01*
X132285714Y-52975000D01*
X132357143Y-53046429D01*
X133857143Y-54260714D02*
X133785714Y-54332143D01*
X133571428Y-54403571D01*
X133428571Y-54403571D01*
X133214286Y-54332143D01*
X133071428Y-54189286D01*
X133000000Y-54046429D01*
X132928571Y-53760714D01*
X132928571Y-53546429D01*
X133000000Y-53260714D01*
X133071428Y-53117857D01*
X133214286Y-52975000D01*
X133428571Y-52903571D01*
X133571428Y-52903571D01*
X133785714Y-52975000D01*
X133857143Y-53046429D01*
X129571429Y-57525000D02*
X129500001Y-57453571D01*
X129357144Y-57239286D01*
X129285715Y-57096429D01*
X129214286Y-56882143D01*
X129142858Y-56525000D01*
X129142858Y-56239286D01*
X129214286Y-55882143D01*
X129285715Y-55667857D01*
X129357144Y-55525000D01*
X129500001Y-55310714D01*
X129571429Y-55239286D01*
X130142858Y-56382143D02*
X131285715Y-56382143D01*
X130714286Y-56953571D02*
X130714286Y-55810714D01*
X132714287Y-55453571D02*
X132000001Y-55453571D01*
X131928572Y-56167857D01*
X132000001Y-56096429D01*
X132142858Y-56025000D01*
X132500001Y-56025000D01*
X132642858Y-56096429D01*
X132714287Y-56167857D01*
X132785715Y-56310714D01*
X132785715Y-56667857D01*
X132714287Y-56810714D01*
X132642858Y-56882143D01*
X132500001Y-56953571D01*
X132142858Y-56953571D01*
X132000001Y-56882143D01*
X131928572Y-56810714D01*
X133285715Y-55953571D02*
X133642858Y-56953571D01*
X134000000Y-55953571D01*
X134428572Y-57525000D02*
X134500000Y-57453571D01*
X134642857Y-57239286D01*
X134714286Y-57096429D01*
X134785715Y-56882143D01*
X134857143Y-56525000D01*
X134857143Y-56239286D01*
X134785715Y-55882143D01*
X134714286Y-55667857D01*
X134642857Y-55525000D01*
X134500000Y-55310714D01*
X134428572Y-55239286D01*
D11*
X137000000Y-55000000D02*
X136000000Y-55000000D01*
X63000000Y-55000000D02*
X64000000Y-55000000D01*
X63000000Y-59000000D02*
X61000000Y-59000000D01*
X63000000Y-51000000D02*
X63000000Y-59000000D01*
X61000000Y-51000000D02*
X63000000Y-51000000D01*
X137000000Y-59000000D02*
X139000000Y-59000000D01*
X137000000Y-51000000D02*
X137000000Y-59000000D01*
X139000000Y-51000000D02*
X137000000Y-51000000D01*
X80000000Y-104000000D02*
X80000000Y-108000000D01*
X80000000Y-108000000D02*
X81000000Y-107000000D01*
X81000000Y-107000000D02*
X79000000Y-107000000D01*
X79000000Y-107000000D02*
X80000000Y-108000000D01*
X85000000Y-104000000D02*
X85000000Y-108000000D01*
X85000000Y-108000000D02*
X86000000Y-107000000D01*
X86000000Y-107000000D02*
X84000000Y-107000000D01*
X84000000Y-107000000D02*
X85000000Y-108000000D01*
X80357143Y-102500001D02*
X80404762Y-102547620D01*
X80452381Y-102690477D01*
X80452381Y-102785715D01*
X80404762Y-102928573D01*
X80309524Y-103023811D01*
X80214286Y-103071430D01*
X80023810Y-103119049D01*
X79880952Y-103119049D01*
X79690476Y-103071430D01*
X79595238Y-103023811D01*
X79500000Y-102928573D01*
X79452381Y-102785715D01*
X79452381Y-102690477D01*
X79500000Y-102547620D01*
X79547619Y-102500001D01*
X80452381Y-101928573D02*
X80404762Y-102023811D01*
X80309524Y-102071430D01*
X79452381Y-102071430D01*
X80404762Y-101166667D02*
X80452381Y-101261905D01*
X80452381Y-101452382D01*
X80404762Y-101547620D01*
X80309524Y-101595239D01*
X79928571Y-101595239D01*
X79833333Y-101547620D01*
X79785714Y-101452382D01*
X79785714Y-101261905D01*
X79833333Y-101166667D01*
X79928571Y-101119048D01*
X80023810Y-101119048D01*
X80119048Y-101595239D01*
X80452381Y-100261905D02*
X79928571Y-100261905D01*
X79833333Y-100309524D01*
X79785714Y-100404762D01*
X79785714Y-100595239D01*
X79833333Y-100690477D01*
X80404762Y-100261905D02*
X80452381Y-100357143D01*
X80452381Y-100595239D01*
X80404762Y-100690477D01*
X80309524Y-100738096D01*
X80214286Y-100738096D01*
X80119048Y-100690477D01*
X80071429Y-100595239D01*
X80071429Y-100357143D01*
X80023810Y-100261905D01*
X80452381Y-99785715D02*
X79785714Y-99785715D01*
X79976190Y-99785715D02*
X79880952Y-99738096D01*
X79833333Y-99690477D01*
X79785714Y-99595239D01*
X79785714Y-99500000D01*
X80452381Y-97976190D02*
X79928571Y-97976190D01*
X79833333Y-98023809D01*
X79785714Y-98119047D01*
X79785714Y-98309524D01*
X79833333Y-98404762D01*
X80404762Y-97976190D02*
X80452381Y-98071428D01*
X80452381Y-98309524D01*
X80404762Y-98404762D01*
X80309524Y-98452381D01*
X80214286Y-98452381D01*
X80119048Y-98404762D01*
X80071429Y-98309524D01*
X80071429Y-98071428D01*
X80023810Y-97976190D01*
X80452381Y-97357143D02*
X80404762Y-97452381D01*
X80309524Y-97500000D01*
X79452381Y-97500000D01*
X80452381Y-96833333D02*
X80404762Y-96928571D01*
X80309524Y-96976190D01*
X79452381Y-96976190D01*
X85357143Y-102619048D02*
X85404762Y-102666667D01*
X85452381Y-102809524D01*
X85452381Y-102904762D01*
X85404762Y-103047620D01*
X85309524Y-103142858D01*
X85214286Y-103190477D01*
X85023810Y-103238096D01*
X84880952Y-103238096D01*
X84690476Y-103190477D01*
X84595238Y-103142858D01*
X84500000Y-103047620D01*
X84452381Y-102904762D01*
X84452381Y-102809524D01*
X84500000Y-102666667D01*
X84547619Y-102619048D01*
X85452381Y-102047620D02*
X85404762Y-102142858D01*
X85309524Y-102190477D01*
X84452381Y-102190477D01*
X85452381Y-101523810D02*
X85404762Y-101619048D01*
X85357143Y-101666667D01*
X85261905Y-101714286D01*
X84976190Y-101714286D01*
X84880952Y-101666667D01*
X84833333Y-101619048D01*
X84785714Y-101523810D01*
X84785714Y-101380952D01*
X84833333Y-101285714D01*
X84880952Y-101238095D01*
X84976190Y-101190476D01*
X85261905Y-101190476D01*
X85357143Y-101238095D01*
X85404762Y-101285714D01*
X85452381Y-101380952D01*
X85452381Y-101523810D01*
X85404762Y-100333333D02*
X85452381Y-100428571D01*
X85452381Y-100619048D01*
X85404762Y-100714286D01*
X85357143Y-100761905D01*
X85261905Y-100809524D01*
X84976190Y-100809524D01*
X84880952Y-100761905D01*
X84833333Y-100714286D01*
X84785714Y-100619048D01*
X84785714Y-100428571D01*
X84833333Y-100333333D01*
X85452381Y-99904762D02*
X84452381Y-99904762D01*
X85071429Y-99809524D02*
X85452381Y-99523809D01*
X84785714Y-99523809D02*
X85166667Y-99904762D01*
X84785714Y-98333333D02*
X85785714Y-98333333D01*
X84833333Y-98333333D02*
X84785714Y-98238095D01*
X84785714Y-98047618D01*
X84833333Y-97952380D01*
X84880952Y-97904761D01*
X84976190Y-97857142D01*
X85261905Y-97857142D01*
X85357143Y-97904761D01*
X85404762Y-97952380D01*
X85452381Y-98047618D01*
X85452381Y-98238095D01*
X85404762Y-98333333D01*
X84785714Y-96999999D02*
X85452381Y-96999999D01*
X84785714Y-97428571D02*
X85309524Y-97428571D01*
X85404762Y-97380952D01*
X85452381Y-97285714D01*
X85452381Y-97142856D01*
X85404762Y-97047618D01*
X85357143Y-96999999D01*
X85452381Y-96380952D02*
X85404762Y-96476190D01*
X85309524Y-96523809D01*
X84452381Y-96523809D01*
X85404762Y-96047618D02*
X85452381Y-95952380D01*
X85452381Y-95761904D01*
X85404762Y-95666665D01*
X85309524Y-95619046D01*
X85261905Y-95619046D01*
X85166667Y-95666665D01*
X85119048Y-95761904D01*
X85119048Y-95904761D01*
X85071429Y-95999999D01*
X84976190Y-96047618D01*
X84928571Y-96047618D01*
X84833333Y-95999999D01*
X84785714Y-95904761D01*
X84785714Y-95761904D01*
X84833333Y-95666665D01*
X85404762Y-94809522D02*
X85452381Y-94904760D01*
X85452381Y-95095237D01*
X85404762Y-95190475D01*
X85309524Y-95238094D01*
X84928571Y-95238094D01*
X84833333Y-95190475D01*
X84785714Y-95095237D01*
X84785714Y-94904760D01*
X84833333Y-94809522D01*
X84928571Y-94761903D01*
X85023810Y-94761903D01*
X85119048Y-95238094D01*
X89000000Y-107000000D02*
X90000000Y-108000000D01*
X91000000Y-107000000D02*
X89000000Y-107000000D01*
X90000000Y-108000000D02*
X91000000Y-107000000D01*
X90000000Y-104000000D02*
X90000000Y-108000000D01*
X89602381Y-103309525D02*
X88602381Y-103309525D01*
X88602381Y-103071430D01*
X88650000Y-102928572D01*
X88745238Y-102833334D01*
X88840476Y-102785715D01*
X89030952Y-102738096D01*
X89173810Y-102738096D01*
X89364286Y-102785715D01*
X89459524Y-102833334D01*
X89554762Y-102928572D01*
X89602381Y-103071430D01*
X89602381Y-103309525D01*
X89602381Y-101880953D02*
X89078571Y-101880953D01*
X88983333Y-101928572D01*
X88935714Y-102023810D01*
X88935714Y-102214287D01*
X88983333Y-102309525D01*
X89554762Y-101880953D02*
X89602381Y-101976191D01*
X89602381Y-102214287D01*
X89554762Y-102309525D01*
X89459524Y-102357144D01*
X89364286Y-102357144D01*
X89269048Y-102309525D01*
X89221429Y-102214287D01*
X89221429Y-101976191D01*
X89173810Y-101880953D01*
X88935714Y-101547620D02*
X88935714Y-101166668D01*
X88602381Y-101404763D02*
X89459524Y-101404763D01*
X89554762Y-101357144D01*
X89602381Y-101261906D01*
X89602381Y-101166668D01*
X89602381Y-100404762D02*
X89078571Y-100404762D01*
X88983333Y-100452381D01*
X88935714Y-100547619D01*
X88935714Y-100738096D01*
X88983333Y-100833334D01*
X89554762Y-100404762D02*
X89602381Y-100500000D01*
X89602381Y-100738096D01*
X89554762Y-100833334D01*
X89459524Y-100880953D01*
X89364286Y-100880953D01*
X89269048Y-100833334D01*
X89221429Y-100738096D01*
X89221429Y-100500000D01*
X89173810Y-100404762D01*
X89554762Y-98785714D02*
X89602381Y-98880952D01*
X89602381Y-99071429D01*
X89554762Y-99166667D01*
X89459524Y-99214286D01*
X89078571Y-99214286D01*
X88983333Y-99166667D01*
X88935714Y-99071429D01*
X88935714Y-98880952D01*
X88983333Y-98785714D01*
X89078571Y-98738095D01*
X89173810Y-98738095D01*
X89269048Y-99214286D01*
X88935714Y-98309524D02*
X89602381Y-98309524D01*
X89030952Y-98309524D02*
X88983333Y-98261905D01*
X88935714Y-98166667D01*
X88935714Y-98023809D01*
X88983333Y-97928571D01*
X89078571Y-97880952D01*
X89602381Y-97880952D01*
X89602381Y-96976190D02*
X89078571Y-96976190D01*
X88983333Y-97023809D01*
X88935714Y-97119047D01*
X88935714Y-97309524D01*
X88983333Y-97404762D01*
X89554762Y-96976190D02*
X89602381Y-97071428D01*
X89602381Y-97309524D01*
X89554762Y-97404762D01*
X89459524Y-97452381D01*
X89364286Y-97452381D01*
X89269048Y-97404762D01*
X89221429Y-97309524D01*
X89221429Y-97071428D01*
X89173810Y-96976190D01*
X89602381Y-96500000D02*
X88602381Y-96500000D01*
X88983333Y-96500000D02*
X88935714Y-96404762D01*
X88935714Y-96214285D01*
X88983333Y-96119047D01*
X89030952Y-96071428D01*
X89126190Y-96023809D01*
X89411905Y-96023809D01*
X89507143Y-96071428D01*
X89554762Y-96119047D01*
X89602381Y-96214285D01*
X89602381Y-96404762D01*
X89554762Y-96500000D01*
X89602381Y-95452381D02*
X89554762Y-95547619D01*
X89459524Y-95595238D01*
X88602381Y-95595238D01*
X89554762Y-94690475D02*
X89602381Y-94785713D01*
X89602381Y-94976190D01*
X89554762Y-95071428D01*
X89459524Y-95119047D01*
X89078571Y-95119047D01*
X88983333Y-95071428D01*
X88935714Y-94976190D01*
X88935714Y-94785713D01*
X88983333Y-94690475D01*
X89078571Y-94642856D01*
X89173810Y-94642856D01*
X89269048Y-95119047D01*
X91683333Y-103238096D02*
X91635714Y-103285716D01*
X91492857Y-103380954D01*
X91397619Y-103428573D01*
X91254762Y-103476192D01*
X91016667Y-103523811D01*
X90826190Y-103523811D01*
X90588095Y-103476192D01*
X90445238Y-103428573D01*
X90350000Y-103380954D01*
X90207143Y-103285716D01*
X90159524Y-103238096D01*
X91302381Y-102714287D02*
X91254762Y-102809525D01*
X91159524Y-102857144D01*
X90302381Y-102857144D01*
X91302381Y-102190477D02*
X91254762Y-102285715D01*
X91207143Y-102333334D01*
X91111905Y-102380953D01*
X90826190Y-102380953D01*
X90730952Y-102333334D01*
X90683333Y-102285715D01*
X90635714Y-102190477D01*
X90635714Y-102047619D01*
X90683333Y-101952381D01*
X90730952Y-101904762D01*
X90826190Y-101857143D01*
X91111905Y-101857143D01*
X91207143Y-101904762D01*
X91254762Y-101952381D01*
X91302381Y-102047619D01*
X91302381Y-102190477D01*
X90635714Y-101523810D02*
X91302381Y-101333334D01*
X90826190Y-101142857D01*
X91302381Y-100952381D01*
X90635714Y-100761905D01*
X91254762Y-99238095D02*
X91302381Y-99333333D01*
X91302381Y-99523810D01*
X91254762Y-99619048D01*
X91159524Y-99666667D01*
X90778571Y-99666667D01*
X90683333Y-99619048D01*
X90635714Y-99523810D01*
X90635714Y-99333333D01*
X90683333Y-99238095D01*
X90778571Y-99190476D01*
X90873810Y-99190476D01*
X90969048Y-99666667D01*
X90635714Y-98761905D02*
X91302381Y-98761905D01*
X90730952Y-98761905D02*
X90683333Y-98714286D01*
X90635714Y-98619048D01*
X90635714Y-98476190D01*
X90683333Y-98380952D01*
X90778571Y-98333333D01*
X91302381Y-98333333D01*
X91302381Y-97428571D02*
X90778571Y-97428571D01*
X90683333Y-97476190D01*
X90635714Y-97571428D01*
X90635714Y-97761905D01*
X90683333Y-97857143D01*
X91254762Y-97428571D02*
X91302381Y-97523809D01*
X91302381Y-97761905D01*
X91254762Y-97857143D01*
X91159524Y-97904762D01*
X91064286Y-97904762D01*
X90969048Y-97857143D01*
X90921429Y-97761905D01*
X90921429Y-97523809D01*
X90873810Y-97428571D01*
X91302381Y-96952381D02*
X90302381Y-96952381D01*
X90683333Y-96952381D02*
X90635714Y-96857143D01*
X90635714Y-96666666D01*
X90683333Y-96571428D01*
X90730952Y-96523809D01*
X90826190Y-96476190D01*
X91111905Y-96476190D01*
X91207143Y-96523809D01*
X91254762Y-96571428D01*
X91302381Y-96666666D01*
X91302381Y-96857143D01*
X91254762Y-96952381D01*
X91302381Y-95904762D02*
X91254762Y-96000000D01*
X91159524Y-96047619D01*
X90302381Y-96047619D01*
X91254762Y-95142856D02*
X91302381Y-95238094D01*
X91302381Y-95428571D01*
X91254762Y-95523809D01*
X91159524Y-95571428D01*
X90778571Y-95571428D01*
X90683333Y-95523809D01*
X90635714Y-95428571D01*
X90635714Y-95238094D01*
X90683333Y-95142856D01*
X90778571Y-95095237D01*
X90873810Y-95095237D01*
X90969048Y-95571428D01*
X91683333Y-94761904D02*
X91635714Y-94714285D01*
X91492857Y-94619047D01*
X91397619Y-94571428D01*
X91254762Y-94523809D01*
X91016667Y-94476190D01*
X90826190Y-94476190D01*
X90588095Y-94523809D01*
X90445238Y-94571428D01*
X90350000Y-94619047D01*
X90207143Y-94714285D01*
X90159524Y-94761904D01*
D14*
X69910000Y-64810000D02*
X69910000Y-66580000D01*
X69910000Y-66580000D02*
X90470000Y-66580000D01*
X90470000Y-66580000D02*
X90470000Y-61040000D01*
X90470000Y-61040000D02*
X69910000Y-61040000D01*
X69910000Y-61040000D02*
X69910000Y-62810000D01*
X69910000Y-69010000D02*
X90470000Y-69010000D01*
X90470000Y-69010000D02*
X90470000Y-58610000D01*
X90470000Y-58610000D02*
X69910000Y-58610000D01*
X69910000Y-58610000D02*
X69910000Y-69010000D01*
X69910000Y-62810000D02*
G75*
G02X69910000Y-64810000I0J-1000000D01*
G01*
X54803219Y-97000000D02*
G75*
G03X54803219Y-97000000I-803219J0D01*
G01*
X54803219Y-93000000D02*
G75*
G03X54803219Y-93000000I-803219J0D01*
G01*
X54803219Y-89000000D02*
G75*
G03X54803219Y-89000000I-803219J0D01*
G01*
X54803219Y-85000000D02*
G75*
G03X54803219Y-85000000I-803219J0D01*
G01*
X90803219Y-111000000D02*
G75*
G03X90803219Y-111000000I-803219J0D01*
G01*
X85803219Y-111000000D02*
G75*
G03X85803219Y-111000000I-803219J0D01*
G01*
X80803219Y-111000000D02*
G75*
G03X80803219Y-111000000I-803219J0D01*
G01*
X54803219Y-77000000D02*
G75*
G03X54803219Y-77000000I-803219J0D01*
G01*
X54803219Y-73000000D02*
G75*
G03X54803219Y-73000000I-803219J0D01*
G01*
X54803219Y-69000000D02*
G75*
G03X54803219Y-69000000I-803219J0D01*
G01*
X54803219Y-65000000D02*
G75*
G03X54803219Y-65000000I-803219J0D01*
G01*
X69803219Y-111000000D02*
G75*
G03X69803219Y-111000000I-803219J0D01*
G01*
X143803219Y-111000000D02*
G75*
G03X143803219Y-111000000I-803219J0D01*
G01*
X147803219Y-95000000D02*
G75*
G03X147803219Y-95000000I-803219J0D01*
G01*
X147803219Y-91000000D02*
G75*
G03X147803219Y-91000000I-803219J0D01*
G01*
X147803219Y-87000000D02*
G75*
G03X147803219Y-87000000I-803219J0D01*
G01*
X147803219Y-83000000D02*
G75*
G03X147803219Y-83000000I-803219J0D01*
G01*
X147803219Y-79000000D02*
G75*
G03X147803219Y-79000000I-803219J0D01*
G01*
X147803219Y-75000000D02*
G75*
G03X147803219Y-75000000I-803219J0D01*
G01*
X147853219Y-71000000D02*
G75*
G03X147853219Y-71000000I-803219J0D01*
G01*
X147803219Y-67000000D02*
G75*
G03X147803219Y-67000000I-803219J0D01*
G01*
X60803219Y-55000000D02*
G75*
G03X60803219Y-55000000I-803219J0D01*
G01*
X140803219Y-55000000D02*
G75*
G03X140803219Y-55000000I-803219J0D01*
G01*
X69990000Y-83190000D02*
X69990000Y-84960000D01*
X69990000Y-84960000D02*
X90550000Y-84960000D01*
X90550000Y-84960000D02*
X90550000Y-79420000D01*
X90550000Y-79420000D02*
X69990000Y-79420000D01*
X69990000Y-79420000D02*
X69990000Y-81190000D01*
X69990000Y-87390000D02*
X90550000Y-87390000D01*
X90550000Y-87390000D02*
X90550000Y-76990000D01*
X90550000Y-76990000D02*
X69990000Y-76990000D01*
X69990000Y-76990000D02*
X69990000Y-87390000D01*
X69990000Y-81190000D02*
G75*
G02X69990000Y-83190000I0J-1000000D01*
G01*
X129190000Y-67750000D02*
X127420000Y-67750000D01*
X127420000Y-67750000D02*
X127420000Y-93390000D01*
X127420000Y-93390000D02*
X132960000Y-93390000D01*
X132960000Y-93390000D02*
X132960000Y-67750000D01*
X132960000Y-67750000D02*
X131190000Y-67750000D01*
X124990000Y-67750000D02*
X124990000Y-93390000D01*
X124990000Y-93390000D02*
X135390000Y-93390000D01*
X135390000Y-93390000D02*
X135390000Y-67750000D01*
X135390000Y-67750000D02*
X124990000Y-67750000D01*
X131190000Y-67750000D02*
G75*
G02X129190000Y-67750000I-1000000J0D01*
G01*
X116050000Y-66860000D02*
X116050000Y-65140000D01*
X116050000Y-65140000D02*
X112330000Y-65140000D01*
X112330000Y-65140000D02*
X112330000Y-66860000D01*
X112330000Y-66860000D02*
X116050000Y-66860000D01*
X117120000Y-66000000D02*
X116050000Y-66000000D01*
X111260000Y-66000000D02*
X112330000Y-66000000D01*
X116050000Y-70860000D02*
X116050000Y-69140000D01*
X116050000Y-69140000D02*
X112330000Y-69140000D01*
X112330000Y-69140000D02*
X112330000Y-70860000D01*
X112330000Y-70860000D02*
X116050000Y-70860000D01*
X117120000Y-70000000D02*
X116050000Y-70000000D01*
X111260000Y-70000000D02*
X112330000Y-70000000D01*
X116050000Y-74860000D02*
X116050000Y-73140000D01*
X116050000Y-73140000D02*
X112330000Y-73140000D01*
X112330000Y-73140000D02*
X112330000Y-74860000D01*
X112330000Y-74860000D02*
X116050000Y-74860000D01*
X117120000Y-74000000D02*
X116050000Y-74000000D01*
X111260000Y-74000000D02*
X112330000Y-74000000D01*
X116050000Y-78860000D02*
X116050000Y-77140000D01*
X116050000Y-77140000D02*
X112330000Y-77140000D01*
X112330000Y-77140000D02*
X112330000Y-78860000D01*
X112330000Y-78860000D02*
X116050000Y-78860000D01*
X117120000Y-78000000D02*
X116050000Y-78000000D01*
X111260000Y-78000000D02*
X112330000Y-78000000D01*
X116050000Y-82860000D02*
X116050000Y-81140000D01*
X116050000Y-81140000D02*
X112330000Y-81140000D01*
X112330000Y-81140000D02*
X112330000Y-82860000D01*
X112330000Y-82860000D02*
X116050000Y-82860000D01*
X117120000Y-82000000D02*
X116050000Y-82000000D01*
X111260000Y-82000000D02*
X112330000Y-82000000D01*
X116050000Y-86860000D02*
X116050000Y-85140000D01*
X116050000Y-85140000D02*
X112330000Y-85140000D01*
X112330000Y-85140000D02*
X112330000Y-86860000D01*
X112330000Y-86860000D02*
X116050000Y-86860000D01*
X117120000Y-86000000D02*
X116050000Y-86000000D01*
X111260000Y-86000000D02*
X112330000Y-86000000D01*
X116050000Y-90860000D02*
X116050000Y-89140000D01*
X116050000Y-89140000D02*
X112330000Y-89140000D01*
X112330000Y-89140000D02*
X112330000Y-90860000D01*
X112330000Y-90860000D02*
X116050000Y-90860000D01*
X117120000Y-90000000D02*
X116050000Y-90000000D01*
X111260000Y-90000000D02*
X112330000Y-90000000D01*
X116050000Y-94860000D02*
X116050000Y-93140000D01*
X116050000Y-93140000D02*
X112330000Y-93140000D01*
X112330000Y-93140000D02*
X112330000Y-94860000D01*
X112330000Y-94860000D02*
X116050000Y-94860000D01*
X117120000Y-94000000D02*
X116050000Y-94000000D01*
X111260000Y-94000000D02*
X112330000Y-94000000D01*
X72140000Y-108050000D02*
X73860000Y-108050000D01*
X73860000Y-108050000D02*
X73860000Y-104330000D01*
X73860000Y-104330000D02*
X72140000Y-104330000D01*
X72140000Y-104330000D02*
X72140000Y-108050000D01*
X73000000Y-109120000D02*
X73000000Y-108050000D01*
X73000000Y-103260000D02*
X73000000Y-104330000D01*
X103720000Y-53500462D02*
G75*
G03X98170000Y-51955170I-2990000J462D01*
G01*
X103720000Y-53499538D02*
G75*
G02X98170000Y-55044830I-2990000J-462D01*
G01*
X103230000Y-53500000D02*
G75*
G03X103230000Y-53500000I-2500000J0D01*
G01*
X98170000Y-51955000D02*
X98170000Y-55045000D01*
X103720000Y-61500462D02*
G75*
G03X98170000Y-59955170I-2990000J462D01*
G01*
X103720000Y-61499538D02*
G75*
G02X98170000Y-63044830I-2990000J-462D01*
G01*
X103230000Y-61500000D02*
G75*
G03X103230000Y-61500000I-2500000J0D01*
G01*
X98170000Y-59955000D02*
X98170000Y-63045000D01*
X103720000Y-69500462D02*
G75*
G03X98170000Y-67955170I-2990000J462D01*
G01*
X103720000Y-69499538D02*
G75*
G02X98170000Y-71044830I-2990000J-462D01*
G01*
X103230000Y-69500000D02*
G75*
G03X103230000Y-69500000I-2500000J0D01*
G01*
X98170000Y-67955000D02*
X98170000Y-71045000D01*
X103720000Y-77500462D02*
G75*
G03X98170000Y-75955170I-2990000J462D01*
G01*
X103720000Y-77499538D02*
G75*
G02X98170000Y-79044830I-2990000J-462D01*
G01*
X103230000Y-77500000D02*
G75*
G03X103230000Y-77500000I-2500000J0D01*
G01*
X98170000Y-75955000D02*
X98170000Y-79045000D01*
X103720000Y-85500462D02*
G75*
G03X98170000Y-83955170I-2990000J462D01*
G01*
X103720000Y-85499538D02*
G75*
G02X98170000Y-87044830I-2990000J-462D01*
G01*
X103230000Y-85500000D02*
G75*
G03X103230000Y-85500000I-2500000J0D01*
G01*
X98170000Y-83955000D02*
X98170000Y-87045000D01*
X103720000Y-93500462D02*
G75*
G03X98170000Y-91955170I-2990000J462D01*
G01*
X103720000Y-93499538D02*
G75*
G02X98170000Y-95044830I-2990000J-462D01*
G01*
X103230000Y-93500000D02*
G75*
G03X103230000Y-93500000I-2500000J0D01*
G01*
X98170000Y-91955000D02*
X98170000Y-95045000D01*
X103720000Y-101500462D02*
G75*
G03X98170000Y-99955170I-2990000J462D01*
G01*
X103720000Y-101499538D02*
G75*
G02X98170000Y-103044830I-2990000J-462D01*
G01*
X103230000Y-101500000D02*
G75*
G03X103230000Y-101500000I-2500000J0D01*
G01*
X98170000Y-99955000D02*
X98170000Y-103045000D01*
X103720000Y-109500462D02*
G75*
G03X98170000Y-107955170I-2990000J462D01*
G01*
X103720000Y-109499538D02*
G75*
G02X98170000Y-111044830I-2990000J-462D01*
G01*
X103230000Y-109500000D02*
G75*
G03X103230000Y-109500000I-2500000J0D01*
G01*
X98170000Y-107955000D02*
X98170000Y-111045000D01*
D15*
X68362381Y-64571905D02*
X69171905Y-64571905D01*
X69267143Y-64524286D01*
X69314762Y-64476667D01*
X69362381Y-64381429D01*
X69362381Y-64190952D01*
X69314762Y-64095714D01*
X69267143Y-64048095D01*
X69171905Y-64000476D01*
X68362381Y-64000476D01*
X69362381Y-63000476D02*
X69362381Y-63571905D01*
X69362381Y-63286191D02*
X68362381Y-63286191D01*
X68505238Y-63381429D01*
X68600476Y-63476667D01*
X68648095Y-63571905D01*
X90922381Y-66929048D02*
X90922381Y-66262381D01*
X91922381Y-66690953D01*
X91255714Y-65452857D02*
X91922381Y-65452857D01*
X90874762Y-65690953D02*
X91589048Y-65929048D01*
X91589048Y-65310000D01*
X91922381Y-64452857D02*
X91922381Y-64929048D01*
X90922381Y-64929048D01*
X91874762Y-64167143D02*
X91922381Y-64024286D01*
X91922381Y-63786190D01*
X91874762Y-63690952D01*
X91827143Y-63643333D01*
X91731905Y-63595714D01*
X91636667Y-63595714D01*
X91541429Y-63643333D01*
X91493810Y-63690952D01*
X91446190Y-63786190D01*
X91398571Y-63976667D01*
X91350952Y-64071905D01*
X91303333Y-64119524D01*
X91208095Y-64167143D01*
X91112857Y-64167143D01*
X91017619Y-64119524D01*
X90970000Y-64071905D01*
X90922381Y-63976667D01*
X90922381Y-63738571D01*
X90970000Y-63595714D01*
X91922381Y-62643333D02*
X91922381Y-63214762D01*
X91922381Y-62929048D02*
X90922381Y-62929048D01*
X91065238Y-63024286D01*
X91160476Y-63119524D01*
X91208095Y-63214762D01*
X90922381Y-62310000D02*
X90922381Y-61643333D01*
X91922381Y-62071905D01*
X90922381Y-61357619D02*
X90922381Y-60738571D01*
X91303333Y-61071905D01*
X91303333Y-60929047D01*
X91350952Y-60833809D01*
X91398571Y-60786190D01*
X91493810Y-60738571D01*
X91731905Y-60738571D01*
X91827143Y-60786190D01*
X91874762Y-60833809D01*
X91922381Y-60929047D01*
X91922381Y-61214762D01*
X91874762Y-61310000D01*
X91827143Y-61357619D01*
X53261905Y-95852381D02*
X53261905Y-94852381D01*
X53642858Y-94852381D01*
X53738096Y-94900000D01*
X53785715Y-94947619D01*
X53833334Y-95042857D01*
X53833334Y-95185714D01*
X53785715Y-95280952D01*
X53738096Y-95328571D01*
X53642858Y-95376190D01*
X53261905Y-95376190D01*
X54785715Y-95852381D02*
X54214286Y-95852381D01*
X54500000Y-95852381D02*
X54500000Y-94852381D01*
X54404762Y-94995238D01*
X54309524Y-95090476D01*
X54214286Y-95138095D01*
X53261905Y-91852381D02*
X53261905Y-90852381D01*
X53642858Y-90852381D01*
X53738096Y-90900000D01*
X53785715Y-90947619D01*
X53833334Y-91042857D01*
X53833334Y-91185714D01*
X53785715Y-91280952D01*
X53738096Y-91328571D01*
X53642858Y-91376190D01*
X53261905Y-91376190D01*
X54214286Y-90947619D02*
X54261905Y-90900000D01*
X54357143Y-90852381D01*
X54595239Y-90852381D01*
X54690477Y-90900000D01*
X54738096Y-90947619D01*
X54785715Y-91042857D01*
X54785715Y-91138095D01*
X54738096Y-91280952D01*
X54166667Y-91852381D01*
X54785715Y-91852381D01*
X53261905Y-87852381D02*
X53261905Y-86852381D01*
X53642858Y-86852381D01*
X53738096Y-86900000D01*
X53785715Y-86947619D01*
X53833334Y-87042857D01*
X53833334Y-87185714D01*
X53785715Y-87280952D01*
X53738096Y-87328571D01*
X53642858Y-87376190D01*
X53261905Y-87376190D01*
X54166667Y-86852381D02*
X54785715Y-86852381D01*
X54452381Y-87233333D01*
X54595239Y-87233333D01*
X54690477Y-87280952D01*
X54738096Y-87328571D01*
X54785715Y-87423810D01*
X54785715Y-87661905D01*
X54738096Y-87757143D01*
X54690477Y-87804762D01*
X54595239Y-87852381D01*
X54309524Y-87852381D01*
X54214286Y-87804762D01*
X54166667Y-87757143D01*
X53261905Y-83852381D02*
X53261905Y-82852381D01*
X53642858Y-82852381D01*
X53738096Y-82900000D01*
X53785715Y-82947619D01*
X53833334Y-83042857D01*
X53833334Y-83185714D01*
X53785715Y-83280952D01*
X53738096Y-83328571D01*
X53642858Y-83376190D01*
X53261905Y-83376190D01*
X54690477Y-83185714D02*
X54690477Y-83852381D01*
X54452381Y-82804762D02*
X54214286Y-83519048D01*
X54833334Y-83519048D01*
X89261905Y-109852381D02*
X89261905Y-108852381D01*
X89642858Y-108852381D01*
X89738096Y-108900000D01*
X89785715Y-108947619D01*
X89833334Y-109042857D01*
X89833334Y-109185714D01*
X89785715Y-109280952D01*
X89738096Y-109328571D01*
X89642858Y-109376190D01*
X89261905Y-109376190D01*
X90738096Y-108852381D02*
X90261905Y-108852381D01*
X90214286Y-109328571D01*
X90261905Y-109280952D01*
X90357143Y-109233333D01*
X90595239Y-109233333D01*
X90690477Y-109280952D01*
X90738096Y-109328571D01*
X90785715Y-109423810D01*
X90785715Y-109661905D01*
X90738096Y-109757143D01*
X90690477Y-109804762D01*
X90595239Y-109852381D01*
X90357143Y-109852381D01*
X90261905Y-109804762D01*
X90214286Y-109757143D01*
X84261905Y-109852381D02*
X84261905Y-108852381D01*
X84642858Y-108852381D01*
X84738096Y-108900000D01*
X84785715Y-108947619D01*
X84833334Y-109042857D01*
X84833334Y-109185714D01*
X84785715Y-109280952D01*
X84738096Y-109328571D01*
X84642858Y-109376190D01*
X84261905Y-109376190D01*
X85690477Y-108852381D02*
X85500000Y-108852381D01*
X85404762Y-108900000D01*
X85357143Y-108947619D01*
X85261905Y-109090476D01*
X85214286Y-109280952D01*
X85214286Y-109661905D01*
X85261905Y-109757143D01*
X85309524Y-109804762D01*
X85404762Y-109852381D01*
X85595239Y-109852381D01*
X85690477Y-109804762D01*
X85738096Y-109757143D01*
X85785715Y-109661905D01*
X85785715Y-109423810D01*
X85738096Y-109328571D01*
X85690477Y-109280952D01*
X85595239Y-109233333D01*
X85404762Y-109233333D01*
X85309524Y-109280952D01*
X85261905Y-109328571D01*
X85214286Y-109423810D01*
X79261905Y-109852381D02*
X79261905Y-108852381D01*
X79642858Y-108852381D01*
X79738096Y-108900000D01*
X79785715Y-108947619D01*
X79833334Y-109042857D01*
X79833334Y-109185714D01*
X79785715Y-109280952D01*
X79738096Y-109328571D01*
X79642858Y-109376190D01*
X79261905Y-109376190D01*
X80166667Y-108852381D02*
X80833334Y-108852381D01*
X80404762Y-109852381D01*
X53261905Y-75852381D02*
X53261905Y-74852381D01*
X53642858Y-74852381D01*
X53738096Y-74900000D01*
X53785715Y-74947619D01*
X53833334Y-75042857D01*
X53833334Y-75185714D01*
X53785715Y-75280952D01*
X53738096Y-75328571D01*
X53642858Y-75376190D01*
X53261905Y-75376190D01*
X54404762Y-75280952D02*
X54309524Y-75233333D01*
X54261905Y-75185714D01*
X54214286Y-75090476D01*
X54214286Y-75042857D01*
X54261905Y-74947619D01*
X54309524Y-74900000D01*
X54404762Y-74852381D01*
X54595239Y-74852381D01*
X54690477Y-74900000D01*
X54738096Y-74947619D01*
X54785715Y-75042857D01*
X54785715Y-75090476D01*
X54738096Y-75185714D01*
X54690477Y-75233333D01*
X54595239Y-75280952D01*
X54404762Y-75280952D01*
X54309524Y-75328571D01*
X54261905Y-75376190D01*
X54214286Y-75471429D01*
X54214286Y-75661905D01*
X54261905Y-75757143D01*
X54309524Y-75804762D01*
X54404762Y-75852381D01*
X54595239Y-75852381D01*
X54690477Y-75804762D01*
X54738096Y-75757143D01*
X54785715Y-75661905D01*
X54785715Y-75471429D01*
X54738096Y-75376190D01*
X54690477Y-75328571D01*
X54595239Y-75280952D01*
X53261905Y-71852381D02*
X53261905Y-70852381D01*
X53642858Y-70852381D01*
X53738096Y-70900000D01*
X53785715Y-70947619D01*
X53833334Y-71042857D01*
X53833334Y-71185714D01*
X53785715Y-71280952D01*
X53738096Y-71328571D01*
X53642858Y-71376190D01*
X53261905Y-71376190D01*
X54309524Y-71852381D02*
X54500000Y-71852381D01*
X54595239Y-71804762D01*
X54642858Y-71757143D01*
X54738096Y-71614286D01*
X54785715Y-71423810D01*
X54785715Y-71042857D01*
X54738096Y-70947619D01*
X54690477Y-70900000D01*
X54595239Y-70852381D01*
X54404762Y-70852381D01*
X54309524Y-70900000D01*
X54261905Y-70947619D01*
X54214286Y-71042857D01*
X54214286Y-71280952D01*
X54261905Y-71376190D01*
X54309524Y-71423810D01*
X54404762Y-71471429D01*
X54595239Y-71471429D01*
X54690477Y-71423810D01*
X54738096Y-71376190D01*
X54785715Y-71280952D01*
X52785714Y-67852381D02*
X52785714Y-66852381D01*
X53166667Y-66852381D01*
X53261905Y-66900000D01*
X53309524Y-66947619D01*
X53357143Y-67042857D01*
X53357143Y-67185714D01*
X53309524Y-67280952D01*
X53261905Y-67328571D01*
X53166667Y-67376190D01*
X52785714Y-67376190D01*
X54309524Y-67852381D02*
X53738095Y-67852381D01*
X54023809Y-67852381D02*
X54023809Y-66852381D01*
X53928571Y-66995238D01*
X53833333Y-67090476D01*
X53738095Y-67138095D01*
X54928571Y-66852381D02*
X55023810Y-66852381D01*
X55119048Y-66900000D01*
X55166667Y-66947619D01*
X55214286Y-67042857D01*
X55261905Y-67233333D01*
X55261905Y-67471429D01*
X55214286Y-67661905D01*
X55166667Y-67757143D01*
X55119048Y-67804762D01*
X55023810Y-67852381D01*
X54928571Y-67852381D01*
X54833333Y-67804762D01*
X54785714Y-67757143D01*
X54738095Y-67661905D01*
X54690476Y-67471429D01*
X54690476Y-67233333D01*
X54738095Y-67042857D01*
X54785714Y-66947619D01*
X54833333Y-66900000D01*
X54928571Y-66852381D01*
X52785714Y-63852381D02*
X52785714Y-62852381D01*
X53166667Y-62852381D01*
X53261905Y-62900000D01*
X53309524Y-62947619D01*
X53357143Y-63042857D01*
X53357143Y-63185714D01*
X53309524Y-63280952D01*
X53261905Y-63328571D01*
X53166667Y-63376190D01*
X52785714Y-63376190D01*
X54309524Y-63852381D02*
X53738095Y-63852381D01*
X54023809Y-63852381D02*
X54023809Y-62852381D01*
X53928571Y-62995238D01*
X53833333Y-63090476D01*
X53738095Y-63138095D01*
X55261905Y-63852381D02*
X54690476Y-63852381D01*
X54976190Y-63852381D02*
X54976190Y-62852381D01*
X54880952Y-62995238D01*
X54785714Y-63090476D01*
X54690476Y-63138095D01*
X67785714Y-109852381D02*
X67785714Y-108852381D01*
X68166667Y-108852381D01*
X68261905Y-108900000D01*
X68309524Y-108947619D01*
X68357143Y-109042857D01*
X68357143Y-109185714D01*
X68309524Y-109280952D01*
X68261905Y-109328571D01*
X68166667Y-109376190D01*
X67785714Y-109376190D01*
X69309524Y-109852381D02*
X68738095Y-109852381D01*
X69023809Y-109852381D02*
X69023809Y-108852381D01*
X68928571Y-108995238D01*
X68833333Y-109090476D01*
X68738095Y-109138095D01*
X69690476Y-108947619D02*
X69738095Y-108900000D01*
X69833333Y-108852381D01*
X70071429Y-108852381D01*
X70166667Y-108900000D01*
X70214286Y-108947619D01*
X70261905Y-109042857D01*
X70261905Y-109138095D01*
X70214286Y-109280952D01*
X69642857Y-109852381D01*
X70261905Y-109852381D01*
X141785714Y-109852381D02*
X141785714Y-108852381D01*
X142166667Y-108852381D01*
X142261905Y-108900000D01*
X142309524Y-108947619D01*
X142357143Y-109042857D01*
X142357143Y-109185714D01*
X142309524Y-109280952D01*
X142261905Y-109328571D01*
X142166667Y-109376190D01*
X141785714Y-109376190D01*
X143309524Y-109852381D02*
X142738095Y-109852381D01*
X143023809Y-109852381D02*
X143023809Y-108852381D01*
X142928571Y-108995238D01*
X142833333Y-109090476D01*
X142738095Y-109138095D01*
X143642857Y-108852381D02*
X144261905Y-108852381D01*
X143928571Y-109233333D01*
X144071429Y-109233333D01*
X144166667Y-109280952D01*
X144214286Y-109328571D01*
X144261905Y-109423810D01*
X144261905Y-109661905D01*
X144214286Y-109757143D01*
X144166667Y-109804762D01*
X144071429Y-109852381D01*
X143785714Y-109852381D01*
X143690476Y-109804762D01*
X143642857Y-109757143D01*
X145785714Y-93852381D02*
X145785714Y-92852381D01*
X146166667Y-92852381D01*
X146261905Y-92900000D01*
X146309524Y-92947619D01*
X146357143Y-93042857D01*
X146357143Y-93185714D01*
X146309524Y-93280952D01*
X146261905Y-93328571D01*
X146166667Y-93376190D01*
X145785714Y-93376190D01*
X147309524Y-93852381D02*
X146738095Y-93852381D01*
X147023809Y-93852381D02*
X147023809Y-92852381D01*
X146928571Y-92995238D01*
X146833333Y-93090476D01*
X146738095Y-93138095D01*
X148166667Y-93185714D02*
X148166667Y-93852381D01*
X147928571Y-92804762D02*
X147690476Y-93519048D01*
X148309524Y-93519048D01*
X145785714Y-89852381D02*
X145785714Y-88852381D01*
X146166667Y-88852381D01*
X146261905Y-88900000D01*
X146309524Y-88947619D01*
X146357143Y-89042857D01*
X146357143Y-89185714D01*
X146309524Y-89280952D01*
X146261905Y-89328571D01*
X146166667Y-89376190D01*
X145785714Y-89376190D01*
X147309524Y-89852381D02*
X146738095Y-89852381D01*
X147023809Y-89852381D02*
X147023809Y-88852381D01*
X146928571Y-88995238D01*
X146833333Y-89090476D01*
X146738095Y-89138095D01*
X148214286Y-88852381D02*
X147738095Y-88852381D01*
X147690476Y-89328571D01*
X147738095Y-89280952D01*
X147833333Y-89233333D01*
X148071429Y-89233333D01*
X148166667Y-89280952D01*
X148214286Y-89328571D01*
X148261905Y-89423810D01*
X148261905Y-89661905D01*
X148214286Y-89757143D01*
X148166667Y-89804762D01*
X148071429Y-89852381D01*
X147833333Y-89852381D01*
X147738095Y-89804762D01*
X147690476Y-89757143D01*
X145785714Y-85852381D02*
X145785714Y-84852381D01*
X146166667Y-84852381D01*
X146261905Y-84900000D01*
X146309524Y-84947619D01*
X146357143Y-85042857D01*
X146357143Y-85185714D01*
X146309524Y-85280952D01*
X146261905Y-85328571D01*
X146166667Y-85376190D01*
X145785714Y-85376190D01*
X147309524Y-85852381D02*
X146738095Y-85852381D01*
X147023809Y-85852381D02*
X147023809Y-84852381D01*
X146928571Y-84995238D01*
X146833333Y-85090476D01*
X146738095Y-85138095D01*
X148166667Y-84852381D02*
X147976190Y-84852381D01*
X147880952Y-84900000D01*
X147833333Y-84947619D01*
X147738095Y-85090476D01*
X147690476Y-85280952D01*
X147690476Y-85661905D01*
X147738095Y-85757143D01*
X147785714Y-85804762D01*
X147880952Y-85852381D01*
X148071429Y-85852381D01*
X148166667Y-85804762D01*
X148214286Y-85757143D01*
X148261905Y-85661905D01*
X148261905Y-85423810D01*
X148214286Y-85328571D01*
X148166667Y-85280952D01*
X148071429Y-85233333D01*
X147880952Y-85233333D01*
X147785714Y-85280952D01*
X147738095Y-85328571D01*
X147690476Y-85423810D01*
X145785714Y-81852381D02*
X145785714Y-80852381D01*
X146166667Y-80852381D01*
X146261905Y-80900000D01*
X146309524Y-80947619D01*
X146357143Y-81042857D01*
X146357143Y-81185714D01*
X146309524Y-81280952D01*
X146261905Y-81328571D01*
X146166667Y-81376190D01*
X145785714Y-81376190D01*
X147309524Y-81852381D02*
X146738095Y-81852381D01*
X147023809Y-81852381D02*
X147023809Y-80852381D01*
X146928571Y-80995238D01*
X146833333Y-81090476D01*
X146738095Y-81138095D01*
X147642857Y-80852381D02*
X148309524Y-80852381D01*
X147880952Y-81852381D01*
X145785714Y-77852381D02*
X145785714Y-76852381D01*
X146166667Y-76852381D01*
X146261905Y-76900000D01*
X146309524Y-76947619D01*
X146357143Y-77042857D01*
X146357143Y-77185714D01*
X146309524Y-77280952D01*
X146261905Y-77328571D01*
X146166667Y-77376190D01*
X145785714Y-77376190D01*
X147309524Y-77852381D02*
X146738095Y-77852381D01*
X147023809Y-77852381D02*
X147023809Y-76852381D01*
X146928571Y-76995238D01*
X146833333Y-77090476D01*
X146738095Y-77138095D01*
X147880952Y-77280952D02*
X147785714Y-77233333D01*
X147738095Y-77185714D01*
X147690476Y-77090476D01*
X147690476Y-77042857D01*
X147738095Y-76947619D01*
X147785714Y-76900000D01*
X147880952Y-76852381D01*
X148071429Y-76852381D01*
X148166667Y-76900000D01*
X148214286Y-76947619D01*
X148261905Y-77042857D01*
X148261905Y-77090476D01*
X148214286Y-77185714D01*
X148166667Y-77233333D01*
X148071429Y-77280952D01*
X147880952Y-77280952D01*
X147785714Y-77328571D01*
X147738095Y-77376190D01*
X147690476Y-77471429D01*
X147690476Y-77661905D01*
X147738095Y-77757143D01*
X147785714Y-77804762D01*
X147880952Y-77852381D01*
X148071429Y-77852381D01*
X148166667Y-77804762D01*
X148214286Y-77757143D01*
X148261905Y-77661905D01*
X148261905Y-77471429D01*
X148214286Y-77376190D01*
X148166667Y-77328571D01*
X148071429Y-77280952D01*
X145785714Y-73852381D02*
X145785714Y-72852381D01*
X146166667Y-72852381D01*
X146261905Y-72900000D01*
X146309524Y-72947619D01*
X146357143Y-73042857D01*
X146357143Y-73185714D01*
X146309524Y-73280952D01*
X146261905Y-73328571D01*
X146166667Y-73376190D01*
X145785714Y-73376190D01*
X147309524Y-73852381D02*
X146738095Y-73852381D01*
X147023809Y-73852381D02*
X147023809Y-72852381D01*
X146928571Y-72995238D01*
X146833333Y-73090476D01*
X146738095Y-73138095D01*
X147785714Y-73852381D02*
X147976190Y-73852381D01*
X148071429Y-73804762D01*
X148119048Y-73757143D01*
X148214286Y-73614286D01*
X148261905Y-73423810D01*
X148261905Y-73042857D01*
X148214286Y-72947619D01*
X148166667Y-72900000D01*
X148071429Y-72852381D01*
X147880952Y-72852381D01*
X147785714Y-72900000D01*
X147738095Y-72947619D01*
X147690476Y-73042857D01*
X147690476Y-73280952D01*
X147738095Y-73376190D01*
X147785714Y-73423810D01*
X147880952Y-73471429D01*
X148071429Y-73471429D01*
X148166667Y-73423810D01*
X148214286Y-73376190D01*
X148261905Y-73280952D01*
X145835714Y-69852381D02*
X145835714Y-68852381D01*
X146216667Y-68852381D01*
X146311905Y-68900000D01*
X146359524Y-68947619D01*
X146407143Y-69042857D01*
X146407143Y-69185714D01*
X146359524Y-69280952D01*
X146311905Y-69328571D01*
X146216667Y-69376190D01*
X145835714Y-69376190D01*
X146788095Y-68947619D02*
X146835714Y-68900000D01*
X146930952Y-68852381D01*
X147169048Y-68852381D01*
X147264286Y-68900000D01*
X147311905Y-68947619D01*
X147359524Y-69042857D01*
X147359524Y-69138095D01*
X147311905Y-69280952D01*
X146740476Y-69852381D01*
X147359524Y-69852381D01*
X147978571Y-68852381D02*
X148073810Y-68852381D01*
X148169048Y-68900000D01*
X148216667Y-68947619D01*
X148264286Y-69042857D01*
X148311905Y-69233333D01*
X148311905Y-69471429D01*
X148264286Y-69661905D01*
X148216667Y-69757143D01*
X148169048Y-69804762D01*
X148073810Y-69852381D01*
X147978571Y-69852381D01*
X147883333Y-69804762D01*
X147835714Y-69757143D01*
X147788095Y-69661905D01*
X147740476Y-69471429D01*
X147740476Y-69233333D01*
X147788095Y-69042857D01*
X147835714Y-68947619D01*
X147883333Y-68900000D01*
X147978571Y-68852381D01*
X145785714Y-65852381D02*
X145785714Y-64852381D01*
X146166667Y-64852381D01*
X146261905Y-64900000D01*
X146309524Y-64947619D01*
X146357143Y-65042857D01*
X146357143Y-65185714D01*
X146309524Y-65280952D01*
X146261905Y-65328571D01*
X146166667Y-65376190D01*
X145785714Y-65376190D01*
X146738095Y-64947619D02*
X146785714Y-64900000D01*
X146880952Y-64852381D01*
X147119048Y-64852381D01*
X147214286Y-64900000D01*
X147261905Y-64947619D01*
X147309524Y-65042857D01*
X147309524Y-65138095D01*
X147261905Y-65280952D01*
X146690476Y-65852381D01*
X147309524Y-65852381D01*
X148261905Y-65852381D02*
X147690476Y-65852381D01*
X147976190Y-65852381D02*
X147976190Y-64852381D01*
X147880952Y-64995238D01*
X147785714Y-65090476D01*
X147690476Y-65138095D01*
X58785714Y-53852381D02*
X58785714Y-52852381D01*
X59166667Y-52852381D01*
X59261905Y-52900000D01*
X59309524Y-52947619D01*
X59357143Y-53042857D01*
X59357143Y-53185714D01*
X59309524Y-53280952D01*
X59261905Y-53328571D01*
X59166667Y-53376190D01*
X58785714Y-53376190D01*
X59738095Y-52947619D02*
X59785714Y-52900000D01*
X59880952Y-52852381D01*
X60119048Y-52852381D01*
X60214286Y-52900000D01*
X60261905Y-52947619D01*
X60309524Y-53042857D01*
X60309524Y-53138095D01*
X60261905Y-53280952D01*
X59690476Y-53852381D01*
X60309524Y-53852381D01*
X60690476Y-52947619D02*
X60738095Y-52900000D01*
X60833333Y-52852381D01*
X61071429Y-52852381D01*
X61166667Y-52900000D01*
X61214286Y-52947619D01*
X61261905Y-53042857D01*
X61261905Y-53138095D01*
X61214286Y-53280952D01*
X60642857Y-53852381D01*
X61261905Y-53852381D01*
X52785714Y-51917381D02*
X52785714Y-50917381D01*
X53166667Y-50917381D01*
X53261905Y-50965000D01*
X53309524Y-51012619D01*
X53357143Y-51107857D01*
X53357143Y-51250714D01*
X53309524Y-51345952D01*
X53261905Y-51393571D01*
X53166667Y-51441190D01*
X52785714Y-51441190D01*
X53738095Y-51012619D02*
X53785714Y-50965000D01*
X53880952Y-50917381D01*
X54119048Y-50917381D01*
X54214286Y-50965000D01*
X54261905Y-51012619D01*
X54309524Y-51107857D01*
X54309524Y-51203095D01*
X54261905Y-51345952D01*
X53690476Y-51917381D01*
X54309524Y-51917381D01*
X54642857Y-50917381D02*
X55261905Y-50917381D01*
X54928571Y-51298333D01*
X55071429Y-51298333D01*
X55166667Y-51345952D01*
X55214286Y-51393571D01*
X55261905Y-51488810D01*
X55261905Y-51726905D01*
X55214286Y-51822143D01*
X55166667Y-51869762D01*
X55071429Y-51917381D01*
X54785714Y-51917381D01*
X54690476Y-51869762D01*
X54642857Y-51822143D01*
X138785714Y-53852381D02*
X138785714Y-52852381D01*
X139166667Y-52852381D01*
X139261905Y-52900000D01*
X139309524Y-52947619D01*
X139357143Y-53042857D01*
X139357143Y-53185714D01*
X139309524Y-53280952D01*
X139261905Y-53328571D01*
X139166667Y-53376190D01*
X138785714Y-53376190D01*
X139738095Y-52947619D02*
X139785714Y-52900000D01*
X139880952Y-52852381D01*
X140119048Y-52852381D01*
X140214286Y-52900000D01*
X140261905Y-52947619D01*
X140309524Y-53042857D01*
X140309524Y-53138095D01*
X140261905Y-53280952D01*
X139690476Y-53852381D01*
X140309524Y-53852381D01*
X141166667Y-53185714D02*
X141166667Y-53852381D01*
X140928571Y-52804762D02*
X140690476Y-53519048D01*
X141309524Y-53519048D01*
X144785714Y-51917381D02*
X144785714Y-50917381D01*
X145166667Y-50917381D01*
X145261905Y-50965000D01*
X145309524Y-51012619D01*
X145357143Y-51107857D01*
X145357143Y-51250714D01*
X145309524Y-51345952D01*
X145261905Y-51393571D01*
X145166667Y-51441190D01*
X144785714Y-51441190D01*
X145738095Y-51012619D02*
X145785714Y-50965000D01*
X145880952Y-50917381D01*
X146119048Y-50917381D01*
X146214286Y-50965000D01*
X146261905Y-51012619D01*
X146309524Y-51107857D01*
X146309524Y-51203095D01*
X146261905Y-51345952D01*
X145690476Y-51917381D01*
X146309524Y-51917381D01*
X147214286Y-50917381D02*
X146738095Y-50917381D01*
X146690476Y-51393571D01*
X146738095Y-51345952D01*
X146833333Y-51298333D01*
X147071429Y-51298333D01*
X147166667Y-51345952D01*
X147214286Y-51393571D01*
X147261905Y-51488810D01*
X147261905Y-51726905D01*
X147214286Y-51822143D01*
X147166667Y-51869762D01*
X147071429Y-51917381D01*
X146833333Y-51917381D01*
X146738095Y-51869762D01*
X146690476Y-51822143D01*
X68442381Y-82951905D02*
X69251905Y-82951905D01*
X69347143Y-82904286D01*
X69394762Y-82856667D01*
X69442381Y-82761429D01*
X69442381Y-82570952D01*
X69394762Y-82475714D01*
X69347143Y-82428095D01*
X69251905Y-82380476D01*
X68442381Y-82380476D01*
X68537619Y-81951905D02*
X68490000Y-81904286D01*
X68442381Y-81809048D01*
X68442381Y-81570952D01*
X68490000Y-81475714D01*
X68537619Y-81428095D01*
X68632857Y-81380476D01*
X68728095Y-81380476D01*
X68870952Y-81428095D01*
X69442381Y-81999524D01*
X69442381Y-81380476D01*
X91002381Y-85309048D02*
X91002381Y-84642381D01*
X92002381Y-85070953D01*
X91335714Y-83832857D02*
X92002381Y-83832857D01*
X90954762Y-84070953D02*
X91669048Y-84309048D01*
X91669048Y-83690000D01*
X92002381Y-82832857D02*
X92002381Y-83309048D01*
X91002381Y-83309048D01*
X91954762Y-82547143D02*
X92002381Y-82404286D01*
X92002381Y-82166190D01*
X91954762Y-82070952D01*
X91907143Y-82023333D01*
X91811905Y-81975714D01*
X91716667Y-81975714D01*
X91621429Y-82023333D01*
X91573810Y-82070952D01*
X91526190Y-82166190D01*
X91478571Y-82356667D01*
X91430952Y-82451905D01*
X91383333Y-82499524D01*
X91288095Y-82547143D01*
X91192857Y-82547143D01*
X91097619Y-82499524D01*
X91050000Y-82451905D01*
X91002381Y-82356667D01*
X91002381Y-82118571D01*
X91050000Y-81975714D01*
X92002381Y-81023333D02*
X92002381Y-81594762D01*
X92002381Y-81309048D02*
X91002381Y-81309048D01*
X91145238Y-81404286D01*
X91240476Y-81499524D01*
X91288095Y-81594762D01*
X91002381Y-80690000D02*
X91002381Y-80023333D01*
X92002381Y-80451905D01*
X91002381Y-79737619D02*
X91002381Y-79118571D01*
X91383333Y-79451905D01*
X91383333Y-79309047D01*
X91430952Y-79213809D01*
X91478571Y-79166190D01*
X91573810Y-79118571D01*
X91811905Y-79118571D01*
X91907143Y-79166190D01*
X91954762Y-79213809D01*
X92002381Y-79309047D01*
X92002381Y-79594762D01*
X91954762Y-79690000D01*
X91907143Y-79737619D01*
X129428095Y-66202381D02*
X129428095Y-67011905D01*
X129475714Y-67107143D01*
X129523333Y-67154762D01*
X129618571Y-67202381D01*
X129809048Y-67202381D01*
X129904286Y-67154762D01*
X129951905Y-67107143D01*
X129999524Y-67011905D01*
X129999524Y-66202381D01*
X130380476Y-66202381D02*
X130999524Y-66202381D01*
X130666190Y-66583333D01*
X130809048Y-66583333D01*
X130904286Y-66630952D01*
X130951905Y-66678571D01*
X130999524Y-66773810D01*
X130999524Y-67011905D01*
X130951905Y-67107143D01*
X130904286Y-67154762D01*
X130809048Y-67202381D01*
X130523333Y-67202381D01*
X130428095Y-67154762D01*
X130380476Y-67107143D01*
X127070952Y-93842381D02*
X127737619Y-93842381D01*
X127309047Y-94842381D01*
X128547143Y-94175714D02*
X128547143Y-94842381D01*
X128309047Y-93794762D02*
X128070952Y-94509048D01*
X128690000Y-94509048D01*
X129547143Y-94842381D02*
X129070952Y-94842381D01*
X129070952Y-93842381D01*
X129832857Y-94794762D02*
X129975714Y-94842381D01*
X130213810Y-94842381D01*
X130309048Y-94794762D01*
X130356667Y-94747143D01*
X130404286Y-94651905D01*
X130404286Y-94556667D01*
X130356667Y-94461429D01*
X130309048Y-94413810D01*
X130213810Y-94366190D01*
X130023333Y-94318571D01*
X129928095Y-94270952D01*
X129880476Y-94223333D01*
X129832857Y-94128095D01*
X129832857Y-94032857D01*
X129880476Y-93937619D01*
X129928095Y-93890000D01*
X130023333Y-93842381D01*
X130261429Y-93842381D01*
X130404286Y-93890000D01*
X130785238Y-93937619D02*
X130832857Y-93890000D01*
X130928095Y-93842381D01*
X131166191Y-93842381D01*
X131261429Y-93890000D01*
X131309048Y-93937619D01*
X131356667Y-94032857D01*
X131356667Y-94128095D01*
X131309048Y-94270952D01*
X130737619Y-94842381D01*
X131356667Y-94842381D01*
X132213810Y-94175714D02*
X132213810Y-94842381D01*
X131975714Y-93794762D02*
X131737619Y-94509048D01*
X132356667Y-94509048D01*
X133213810Y-93842381D02*
X132737619Y-93842381D01*
X132690000Y-94318571D01*
X132737619Y-94270952D01*
X132832857Y-94223333D01*
X133070953Y-94223333D01*
X133166191Y-94270952D01*
X133213810Y-94318571D01*
X133261429Y-94413810D01*
X133261429Y-94651905D01*
X133213810Y-94747143D01*
X133166191Y-94794762D01*
X133070953Y-94842381D01*
X132832857Y-94842381D01*
X132737619Y-94794762D01*
X132690000Y-94747143D01*
X114023334Y-68312381D02*
X113690000Y-67836190D01*
X113451905Y-68312381D02*
X113451905Y-67312381D01*
X113832858Y-67312381D01*
X113928096Y-67360000D01*
X113975715Y-67407619D01*
X114023334Y-67502857D01*
X114023334Y-67645714D01*
X113975715Y-67740952D01*
X113928096Y-67788571D01*
X113832858Y-67836190D01*
X113451905Y-67836190D01*
X114404286Y-67407619D02*
X114451905Y-67360000D01*
X114547143Y-67312381D01*
X114785239Y-67312381D01*
X114880477Y-67360000D01*
X114928096Y-67407619D01*
X114975715Y-67502857D01*
X114975715Y-67598095D01*
X114928096Y-67740952D01*
X114356667Y-68312381D01*
X114975715Y-68312381D01*
X114023334Y-72312381D02*
X113690000Y-71836190D01*
X113451905Y-72312381D02*
X113451905Y-71312381D01*
X113832858Y-71312381D01*
X113928096Y-71360000D01*
X113975715Y-71407619D01*
X114023334Y-71502857D01*
X114023334Y-71645714D01*
X113975715Y-71740952D01*
X113928096Y-71788571D01*
X113832858Y-71836190D01*
X113451905Y-71836190D01*
X114356667Y-71312381D02*
X114975715Y-71312381D01*
X114642381Y-71693333D01*
X114785239Y-71693333D01*
X114880477Y-71740952D01*
X114928096Y-71788571D01*
X114975715Y-71883810D01*
X114975715Y-72121905D01*
X114928096Y-72217143D01*
X114880477Y-72264762D01*
X114785239Y-72312381D01*
X114499524Y-72312381D01*
X114404286Y-72264762D01*
X114356667Y-72217143D01*
X114023334Y-76312381D02*
X113690000Y-75836190D01*
X113451905Y-76312381D02*
X113451905Y-75312381D01*
X113832858Y-75312381D01*
X113928096Y-75360000D01*
X113975715Y-75407619D01*
X114023334Y-75502857D01*
X114023334Y-75645714D01*
X113975715Y-75740952D01*
X113928096Y-75788571D01*
X113832858Y-75836190D01*
X113451905Y-75836190D01*
X114880477Y-75645714D02*
X114880477Y-76312381D01*
X114642381Y-75264762D02*
X114404286Y-75979048D01*
X115023334Y-75979048D01*
X114023334Y-80312381D02*
X113690000Y-79836190D01*
X113451905Y-80312381D02*
X113451905Y-79312381D01*
X113832858Y-79312381D01*
X113928096Y-79360000D01*
X113975715Y-79407619D01*
X114023334Y-79502857D01*
X114023334Y-79645714D01*
X113975715Y-79740952D01*
X113928096Y-79788571D01*
X113832858Y-79836190D01*
X113451905Y-79836190D01*
X114928096Y-79312381D02*
X114451905Y-79312381D01*
X114404286Y-79788571D01*
X114451905Y-79740952D01*
X114547143Y-79693333D01*
X114785239Y-79693333D01*
X114880477Y-79740952D01*
X114928096Y-79788571D01*
X114975715Y-79883810D01*
X114975715Y-80121905D01*
X114928096Y-80217143D01*
X114880477Y-80264762D01*
X114785239Y-80312381D01*
X114547143Y-80312381D01*
X114451905Y-80264762D01*
X114404286Y-80217143D01*
X114023334Y-84312381D02*
X113690000Y-83836190D01*
X113451905Y-84312381D02*
X113451905Y-83312381D01*
X113832858Y-83312381D01*
X113928096Y-83360000D01*
X113975715Y-83407619D01*
X114023334Y-83502857D01*
X114023334Y-83645714D01*
X113975715Y-83740952D01*
X113928096Y-83788571D01*
X113832858Y-83836190D01*
X113451905Y-83836190D01*
X114880477Y-83312381D02*
X114690000Y-83312381D01*
X114594762Y-83360000D01*
X114547143Y-83407619D01*
X114451905Y-83550476D01*
X114404286Y-83740952D01*
X114404286Y-84121905D01*
X114451905Y-84217143D01*
X114499524Y-84264762D01*
X114594762Y-84312381D01*
X114785239Y-84312381D01*
X114880477Y-84264762D01*
X114928096Y-84217143D01*
X114975715Y-84121905D01*
X114975715Y-83883810D01*
X114928096Y-83788571D01*
X114880477Y-83740952D01*
X114785239Y-83693333D01*
X114594762Y-83693333D01*
X114499524Y-83740952D01*
X114451905Y-83788571D01*
X114404286Y-83883810D01*
X114023334Y-88312381D02*
X113690000Y-87836190D01*
X113451905Y-88312381D02*
X113451905Y-87312381D01*
X113832858Y-87312381D01*
X113928096Y-87360000D01*
X113975715Y-87407619D01*
X114023334Y-87502857D01*
X114023334Y-87645714D01*
X113975715Y-87740952D01*
X113928096Y-87788571D01*
X113832858Y-87836190D01*
X113451905Y-87836190D01*
X114356667Y-87312381D02*
X115023334Y-87312381D01*
X114594762Y-88312381D01*
X114023334Y-92312381D02*
X113690000Y-91836190D01*
X113451905Y-92312381D02*
X113451905Y-91312381D01*
X113832858Y-91312381D01*
X113928096Y-91360000D01*
X113975715Y-91407619D01*
X114023334Y-91502857D01*
X114023334Y-91645714D01*
X113975715Y-91740952D01*
X113928096Y-91788571D01*
X113832858Y-91836190D01*
X113451905Y-91836190D01*
X114594762Y-91740952D02*
X114499524Y-91693333D01*
X114451905Y-91645714D01*
X114404286Y-91550476D01*
X114404286Y-91502857D01*
X114451905Y-91407619D01*
X114499524Y-91360000D01*
X114594762Y-91312381D01*
X114785239Y-91312381D01*
X114880477Y-91360000D01*
X114928096Y-91407619D01*
X114975715Y-91502857D01*
X114975715Y-91550476D01*
X114928096Y-91645714D01*
X114880477Y-91693333D01*
X114785239Y-91740952D01*
X114594762Y-91740952D01*
X114499524Y-91788571D01*
X114451905Y-91836190D01*
X114404286Y-91931429D01*
X114404286Y-92121905D01*
X114451905Y-92217143D01*
X114499524Y-92264762D01*
X114594762Y-92312381D01*
X114785239Y-92312381D01*
X114880477Y-92264762D01*
X114928096Y-92217143D01*
X114975715Y-92121905D01*
X114975715Y-91931429D01*
X114928096Y-91836190D01*
X114880477Y-91788571D01*
X114785239Y-91740952D01*
X114023334Y-96312381D02*
X113690000Y-95836190D01*
X113451905Y-96312381D02*
X113451905Y-95312381D01*
X113832858Y-95312381D01*
X113928096Y-95360000D01*
X113975715Y-95407619D01*
X114023334Y-95502857D01*
X114023334Y-95645714D01*
X113975715Y-95740952D01*
X113928096Y-95788571D01*
X113832858Y-95836190D01*
X113451905Y-95836190D01*
X114499524Y-96312381D02*
X114690000Y-96312381D01*
X114785239Y-96264762D01*
X114832858Y-96217143D01*
X114928096Y-96074286D01*
X114975715Y-95883810D01*
X114975715Y-95502857D01*
X114928096Y-95407619D01*
X114880477Y-95360000D01*
X114785239Y-95312381D01*
X114594762Y-95312381D01*
X114499524Y-95360000D01*
X114451905Y-95407619D01*
X114404286Y-95502857D01*
X114404286Y-95740952D01*
X114451905Y-95836190D01*
X114499524Y-95883810D01*
X114594762Y-95931429D01*
X114785239Y-95931429D01*
X114880477Y-95883810D01*
X114928096Y-95836190D01*
X114975715Y-95740952D01*
X71592381Y-106356666D02*
X71116190Y-106690000D01*
X71592381Y-106928095D02*
X70592381Y-106928095D01*
X70592381Y-106547142D01*
X70640000Y-106451904D01*
X70687619Y-106404285D01*
X70782857Y-106356666D01*
X70925714Y-106356666D01*
X71020952Y-106404285D01*
X71068571Y-106451904D01*
X71116190Y-106547142D01*
X71116190Y-106928095D01*
X71592381Y-105404285D02*
X71592381Y-105975714D01*
X71592381Y-105690000D02*
X70592381Y-105690000D01*
X70735238Y-105785238D01*
X70830476Y-105880476D01*
X70878095Y-105975714D01*
X100261905Y-51952381D02*
X100261905Y-50952381D01*
X100500000Y-50952381D01*
X100642858Y-51000000D01*
X100738096Y-51095238D01*
X100785715Y-51190476D01*
X100833334Y-51380952D01*
X100833334Y-51523810D01*
X100785715Y-51714286D01*
X100738096Y-51809524D01*
X100642858Y-51904762D01*
X100500000Y-51952381D01*
X100261905Y-51952381D01*
X101785715Y-51952381D02*
X101214286Y-51952381D01*
X101500000Y-51952381D02*
X101500000Y-50952381D01*
X101404762Y-51095238D01*
X101309524Y-51190476D01*
X101214286Y-51238095D01*
X100011905Y-60202381D02*
X100011905Y-59202381D01*
X100250000Y-59202381D01*
X100392858Y-59250000D01*
X100488096Y-59345238D01*
X100535715Y-59440476D01*
X100583334Y-59630952D01*
X100583334Y-59773810D01*
X100535715Y-59964286D01*
X100488096Y-60059524D01*
X100392858Y-60154762D01*
X100250000Y-60202381D01*
X100011905Y-60202381D01*
X100964286Y-59297619D02*
X101011905Y-59250000D01*
X101107143Y-59202381D01*
X101345239Y-59202381D01*
X101440477Y-59250000D01*
X101488096Y-59297619D01*
X101535715Y-59392857D01*
X101535715Y-59488095D01*
X101488096Y-59630952D01*
X100916667Y-60202381D01*
X101535715Y-60202381D01*
X100011905Y-68202381D02*
X100011905Y-67202381D01*
X100250000Y-67202381D01*
X100392858Y-67250000D01*
X100488096Y-67345238D01*
X100535715Y-67440476D01*
X100583334Y-67630952D01*
X100583334Y-67773810D01*
X100535715Y-67964286D01*
X100488096Y-68059524D01*
X100392858Y-68154762D01*
X100250000Y-68202381D01*
X100011905Y-68202381D01*
X100916667Y-67202381D02*
X101535715Y-67202381D01*
X101202381Y-67583333D01*
X101345239Y-67583333D01*
X101440477Y-67630952D01*
X101488096Y-67678571D01*
X101535715Y-67773810D01*
X101535715Y-68011905D01*
X101488096Y-68107143D01*
X101440477Y-68154762D01*
X101345239Y-68202381D01*
X101059524Y-68202381D01*
X100964286Y-68154762D01*
X100916667Y-68107143D01*
X100011905Y-76202381D02*
X100011905Y-75202381D01*
X100250000Y-75202381D01*
X100392858Y-75250000D01*
X100488096Y-75345238D01*
X100535715Y-75440476D01*
X100583334Y-75630952D01*
X100583334Y-75773810D01*
X100535715Y-75964286D01*
X100488096Y-76059524D01*
X100392858Y-76154762D01*
X100250000Y-76202381D01*
X100011905Y-76202381D01*
X101440477Y-75535714D02*
X101440477Y-76202381D01*
X101202381Y-75154762D02*
X100964286Y-75869048D01*
X101583334Y-75869048D01*
X100011905Y-84202381D02*
X100011905Y-83202381D01*
X100250000Y-83202381D01*
X100392858Y-83250000D01*
X100488096Y-83345238D01*
X100535715Y-83440476D01*
X100583334Y-83630952D01*
X100583334Y-83773810D01*
X100535715Y-83964286D01*
X100488096Y-84059524D01*
X100392858Y-84154762D01*
X100250000Y-84202381D01*
X100011905Y-84202381D01*
X101488096Y-83202381D02*
X101011905Y-83202381D01*
X100964286Y-83678571D01*
X101011905Y-83630952D01*
X101107143Y-83583333D01*
X101345239Y-83583333D01*
X101440477Y-83630952D01*
X101488096Y-83678571D01*
X101535715Y-83773810D01*
X101535715Y-84011905D01*
X101488096Y-84107143D01*
X101440477Y-84154762D01*
X101345239Y-84202381D01*
X101107143Y-84202381D01*
X101011905Y-84154762D01*
X100964286Y-84107143D01*
X100011905Y-92202381D02*
X100011905Y-91202381D01*
X100250000Y-91202381D01*
X100392858Y-91250000D01*
X100488096Y-91345238D01*
X100535715Y-91440476D01*
X100583334Y-91630952D01*
X100583334Y-91773810D01*
X100535715Y-91964286D01*
X100488096Y-92059524D01*
X100392858Y-92154762D01*
X100250000Y-92202381D01*
X100011905Y-92202381D01*
X101440477Y-91202381D02*
X101250000Y-91202381D01*
X101154762Y-91250000D01*
X101107143Y-91297619D01*
X101011905Y-91440476D01*
X100964286Y-91630952D01*
X100964286Y-92011905D01*
X101011905Y-92107143D01*
X101059524Y-92154762D01*
X101154762Y-92202381D01*
X101345239Y-92202381D01*
X101440477Y-92154762D01*
X101488096Y-92107143D01*
X101535715Y-92011905D01*
X101535715Y-91773810D01*
X101488096Y-91678571D01*
X101440477Y-91630952D01*
X101345239Y-91583333D01*
X101154762Y-91583333D01*
X101059524Y-91630952D01*
X101011905Y-91678571D01*
X100964286Y-91773810D01*
X100011905Y-100202381D02*
X100011905Y-99202381D01*
X100250000Y-99202381D01*
X100392858Y-99250000D01*
X100488096Y-99345238D01*
X100535715Y-99440476D01*
X100583334Y-99630952D01*
X100583334Y-99773810D01*
X100535715Y-99964286D01*
X100488096Y-100059524D01*
X100392858Y-100154762D01*
X100250000Y-100202381D01*
X100011905Y-100202381D01*
X100916667Y-99202381D02*
X101583334Y-99202381D01*
X101154762Y-100202381D01*
X100011905Y-108202381D02*
X100011905Y-107202381D01*
X100250000Y-107202381D01*
X100392858Y-107250000D01*
X100488096Y-107345238D01*
X100535715Y-107440476D01*
X100583334Y-107630952D01*
X100583334Y-107773810D01*
X100535715Y-107964286D01*
X100488096Y-108059524D01*
X100392858Y-108154762D01*
X100250000Y-108202381D01*
X100011905Y-108202381D01*
X101154762Y-107630952D02*
X101059524Y-107583333D01*
X101011905Y-107535714D01*
X100964286Y-107440476D01*
X100964286Y-107392857D01*
X101011905Y-107297619D01*
X101059524Y-107250000D01*
X101154762Y-107202381D01*
X101345239Y-107202381D01*
X101440477Y-107250000D01*
X101488096Y-107297619D01*
X101535715Y-107392857D01*
X101535715Y-107440476D01*
X101488096Y-107535714D01*
X101440477Y-107583333D01*
X101345239Y-107630952D01*
X101154762Y-107630952D01*
X101059524Y-107678571D01*
X101011905Y-107726190D01*
X100964286Y-107821429D01*
X100964286Y-108011905D01*
X101011905Y-108107143D01*
X101059524Y-108154762D01*
X101154762Y-108202381D01*
X101345239Y-108202381D01*
X101440477Y-108154762D01*
X101488096Y-108107143D01*
X101535715Y-108011905D01*
X101535715Y-107821429D01*
X101488096Y-107726190D01*
X101440477Y-107678571D01*
X101345239Y-107630952D01*
M02*
